<?xml version="1.0" encoding="UTF-8" standalone="no"?>
<!-- Created with Inkscape (http://www.inkscape.org/) -->

<svg
   xmlns:dc="http://purl.org/dc/elements/1.1/"
   xmlns:cc="http://creativecommons.org/ns#"
   xmlns:rdf="http://www.w3.org/1999/02/22-rdf-syntax-ns#"
   xmlns:svg="http://www.w3.org/2000/svg"
   xmlns="http://www.w3.org/2000/svg"
   xmlns:sodipodi="http://sodipodi.sourceforge.net/DTD/sodipodi-0.dtd"
   xmlns:inkscape="http://www.inkscape.org/namespaces/inkscape"
   width="210mm"
   height="297mm"
   viewBox="0 0 744.09448819 1052.3622047"
   id="svg2"
   version="1.1"
   inkscape:version="0.91 r13725"
   sodipodi:docname="developer_logo.svg">
  <defs
     id="defs4" />
  <sodipodi:namedview
     id="base"
     pagecolor="#ffffff"
     bordercolor="#666666"
     borderopacity="1.0"
     inkscape:pageopacity="0.0"
     inkscape:pageshadow="2"
     inkscape:zoom="2.93"
     inkscape:cx="296.64003"
     inkscape:cy="820.98963"
     inkscape:document-units="px"
     inkscape:current-layer="layer1"
     showgrid="false"
     inkscape:window-width="1916"
     inkscape:window-height="1041"
     inkscape:window-x="0"
     inkscape:window-y="18"
     inkscape:window-maximized="0" />
  <metadata
     id="metadata7">
    <rdf:RDF>
      <cc:Work
         rdf:about="">
        <dc:format>image/svg+xml</dc:format>
        <dc:type
           rdf:resource="http://purl.org/dc/dcmitype/StillImage" />
        <dc:title></dc:title>
      </cc:Work>
    </rdf:RDF>
  </metadata>
  <g
     inkscape:label="Layer 1"
     inkscape:groupmode="layer"
     id="layer1">
    <rect
       style="opacity:0;fill:#000080;stroke:#ffffff"
       id="rect3340"
       width="225.26402"
       height="277.79196"
       x="208.09143"
       y="240.19955" />
    <g
       id="g5751"
       transform="translate(-109.55631,-78.83959)">
      <g
         id="g4407"
         transform="matrix(-0.65655622,0.01358171,0.33882392,0.82733184,374.62462,230.86461)">
        <path
           id="path4409"
           d="m 73.182,58.748 c -1.766,0 -3.746,-0.657 -5.72,-2.631 -5.889,-5.889 -0.06,-11.855 0,-11.915 L 78.374,33.29 c 0.2,-0.202 4.879,-5.031 0,-9.911 -4.898,-4.898 -9.708,-0.203 -9.91,0 -0.277,0.277 -0.725,0.277 -1.002,0 -0.277,-0.276 -0.277,-0.726 0,-1.002 0.059,-0.061 6.024,-5.89 11.914,0 5.889,5.89 0.06,11.855 0,11.915 L 68.464,45.204 c -0.2,0.202 -4.879,5.031 0,9.911 4.896,4.897 9.707,0.202 9.91,0 0.058,-0.061 6.025,-5.89 11.915,0 0.276,0.276 0.277,0.726 0,1.002 -0.277,0.277 -0.725,0.277 -1.002,0 -4.898,-4.899 -9.709,-0.203 -9.911,0 -0.039,0.04 -2.691,2.63 -6.194,2.631 z"
           inkscape:connector-curvature="0"
           style="fill:#000000" />
      </g>
      <path
         id="path4411"
         d="m 336.29473,249.5797 -0.24393,0.32244 -0.24498,0.32106 c -0.25586,0.33649 0.0871,0.53726 0.0871,0.53726 l 1.50304,1.15336 0.0655,-0.0706 c -0.0724,0.65331 0.47712,1.03037 0.47712,1.03037 l 23.77201,17.29337 c 0.17254,0.14264 0.32759,0.28471 0.46698,0.42737 0.60329,0.61466 0.90711,1.2209 1.04356,1.77789 0.0352,0.13728 0.0573,0.27232 0.0725,0.40395 0.003,0.0331 0.007,0.0671 0.01,0.10044 0.01,0.13973 0.0139,0.27503 0.006,0.40394 -1.2e-4,0.006 3.4e-4,0.0149 -8.1e-4,0.0206 -0.007,0.14389 -0.0258,0.27876 -0.0516,0.40471 -0.003,0.0163 -0.006,0.0312 -0.0105,0.0467 -0.0217,0.10796 -0.0485,0.209 -0.0765,0.30166 -0.006,0.0183 -0.0106,0.0382 -0.017,0.0568 -0.0666,0.2038 -0.14121,0.37137 -0.20214,0.48757 -0.006,0.0122 -0.0118,0.0203 -0.0169,0.0307 -0.0221,0.045 -0.0447,0.0824 -0.0605,0.10824 -0.005,0.009 -0.01,0.0183 -0.0139,0.0231 -0.0136,0.0191 -0.0248,0.0378 -0.0248,0.0378 l 0.84347,0.57141 4.39227,-5.65856 -0.006,-0.005 2.4208,-3.17756 -0.89061,-0.60337 -0.004,0.005 0.002,-0.005 c 0,0 -0.0281,0.0321 -0.0805,0.0861 -0.002,0.005 -0.007,0.01 -0.0121,0.0133 -0.0216,0.0214 -0.0481,0.0477 -0.0774,0.0737 -0.0123,0.011 -0.0238,0.0226 -0.0369,0.0345 -0.0279,0.0234 -0.0593,0.0506 -0.0917,0.0771 -0.0183,0.0161 -0.0344,0.0293 -0.0544,0.045 -0.0375,0.0308 -0.0793,0.0615 -0.12148,0.0939 -0.0186,0.0138 -0.0365,0.0265 -0.0568,0.0407 -0.0604,0.0429 -0.1283,0.0873 -0.1994,0.13147 -0.0318,0.0194 -0.0663,0.0378 -0.0998,0.0568 -0.0459,0.0252 -0.0907,0.0518 -0.14156,0.0764 -0.0398,0.0217 -0.0816,0.0407 -0.12569,0.0609 -0.048,0.0224 -0.0959,0.0442 -0.14652,0.0656 -0.0466,0.0198 -0.0945,0.0376 -0.14379,0.0564 -0.0533,0.0195 -0.10781,0.0371 -0.16391,0.0547 -0.0514,0.016 -0.10334,0.0338 -0.15771,0.0464 -0.062,0.0168 -0.12725,0.0293 -0.19203,0.0442 -0.0531,0.01 -0.10337,0.0228 -0.15921,0.0315 -0.11475,0.0187 -0.23527,0.0321 -0.35984,0.0408 -0.0509,0.003 -0.10675,5.6e-4 -0.15943,0.003 -0.0828,-3.5e-4 -0.16449,0.002 -0.25041,-0.002 -0.0634,-0.002 -0.12911,-0.0101 -0.19377,-0.0159 -0.0822,-0.007 -0.16232,-0.0168 -0.24544,-0.0289 -0.0712,-0.0111 -0.14291,-0.0248 -0.21496,-0.041 -0.14882,-0.0307 -0.29924,-0.0667 -0.45592,-0.11638 -0.33672,-0.10598 -0.69216,-0.25324 -1.06686,-0.46134 l -8.31385,-5.25332 -16.626,-10.50616 c 0,0 -0.55348,-0.37004 -1.18714,-0.0996 l 0.0473,-0.0751 -1.64124,-0.97372 c -8.1e-4,0.002 -0.31195,-0.24205 -0.57036,0.0941 z"
         inkscape:connector-curvature="0"
         style="fill:#000000" />
      <path
         id="path4413"
         d="m 366.78386,272.64199 15.40361,10.28989 c 7.2e-4,-1.3e-4 0.002,4e-4 0.002,4e-4 l 0.32168,0.21897 c 0.10727,0.0733 0.27029,0.0344 0.36193,-0.0868 l 0.15402,-0.20074 0.025,0.0165 1.4099,-1.92284 c 0.0685,-0.11604 0.06,-0.25211 -0.0368,-0.31634 l -0.32271,-0.22035 c -0.002,-0.002 -0.003,-6e-5 -0.005,-4.6e-4 l -15.3762,-10.27307 -1.93705,2.49492 z m 15.93177,9.20944 c 0.062,0.0424 0.10056,0.1052 0.11104,0.174 0.0109,0.0703 -0.008,0.14613 -0.0558,0.20962 -0.0967,0.12612 -0.27721,0.15883 -0.40383,0.0727 l -14.3249,-9.73482 c -0.12674,-0.0868 -0.15036,-0.25779 -0.0545,-0.38377 0.0967,-0.12613 0.27721,-0.15883 0.40384,-0.0727 l 14.32412,9.73497 z"
         inkscape:connector-curvature="0"
         style="fill:#000000" />
      <path
         id="path4415"
         d="m 383.69852,283.31911 4.34644,2.94819 c 0,0 1.85269,1.17037 2.84754,0.69432 l 0.0194,0.0129 c 7.1e-4,-1.4e-4 7.1e-4,-1.4e-4 3.3e-4,-0.002 0.002,-0.008 0.002,-0.0138 0.005,-0.0232 0.006,-0.003 0.0164,-0.007 0.0228,-0.013 l -0.0192,-0.0113 c 0.003,-0.0274 0.002,-0.0538 0.003,-0.0816 0.002,-0.032 0.006,-0.0633 0.004,-0.0953 -0.002,-0.0312 -0.007,-0.0616 -0.0111,-0.0939 -0.005,-0.0376 -0.008,-0.0755 -0.018,-0.11223 -0.004,-0.0252 -0.0146,-0.0507 -0.0208,-0.0771 -0.0138,-0.0438 -0.0276,-0.0876 -0.0433,-0.13179 -0.006,-0.0184 -0.0174,-0.0376 -0.0252,-0.0558 -0.0216,-0.0493 -0.0444,-0.1009 -0.07,-0.14955 -0.007,-0.0128 -0.0143,-0.0233 -0.0218,-0.0352 -0.0302,-0.0571 -0.0628,-0.11314 -0.0994,-0.16834 -0.002,-0.003 -0.005,-0.007 -0.007,-0.0104 -0.47098,-0.71373 -1.29683,-1.31602 -1.29683,-1.31602 l -4.3772,-2.97069 -1.23984,1.69152 z m 4.9273,1.96865 c 0.0602,0.042 0.098,0.10489 0.10836,0.17215 0.0111,0.071 -0.008,0.1486 -0.0579,0.21236 -0.0984,0.12568 -0.27928,0.15609 -0.40453,0.0682 l -3.4758,-2.42129 c -0.12511,-0.0872 -0.14819,-0.25977 -0.0497,-0.38468 0.0984,-0.12567 0.2793,-0.15609 0.40453,-0.0682 l 3.475,2.42143 z"
         inkscape:connector-curvature="0"
         style="fill:#000000" />
      <path
         style="fill:#000000"
         inkscape:connector-curvature="0"
         d="m 406.92889,292.66825 0,-49.8 c 0,-2.1 -1.7,-3.8 -3.8,-3.8 l -74.8,0 c -2.1,0 -3.8,1.7 -3.8,3.8 l 0,49.8 -6.7,0 0,3.8 c 0,2.1 1.7,3.8 3.8,3.8 l 88.1,0 c 2.1,0 3.8,-1.7 3.8,-3.8 l 0,-3.8 -6.6,0 z m -30.7,1.9 c 0,1.1 -0.9,1.9 -1.9,1.9 l -17.2,0 c -1.1,0 -1.9,-0.9 -1.9,-1.9 l 0,-1.9 21.1,0 0,1.9 z m 26.9,-5.7 -74.8,0 0,-44.1 c 0,-1.1 0.9,-1.9 1.9,-1.9 l 70.9,0 c 1.1,0 1.9,0.9 1.9,1.9 l 0,44.1 z"
         id="path5301" />
      <g
         transform="matrix(0.37300405,0,0,0.29692833,380.83603,245.36562)"
         id="g5737">
        <path
           style="fill:#010101"
           inkscape:connector-curvature="0"
           d="m 26.599,0.22 c -4.028,0 -7.281,4.893 -7.281,10.901 0,6.01 3.253,10.863 7.281,10.863 4.027,0 7.281,-4.853 7.281,-10.863 C 33.879,5.112 30.625,0.22 26.599,0.22 Z m 0,17.159 c -2.43,0 -4.408,-2.948 -4.408,-6.572 0,-3.625 1.978,-6.573 4.408,-6.573 2.428,0 4.407,2.948 4.407,6.573 -0.001,3.624 -1.979,6.572 -4.407,6.572 z"
           id="path5707" />
        <rect
           style="fill:#010101"
           x="23.822001"
           y="26.674"
           width="5.5510001"
           height="21.764"
           id="rect5709" />
        <rect
           style="fill:#010101"
           x="23.822001"
           y="52.898998"
           width="5.5510001"
           height="21.764999"
           id="rect5711" />
        <path
           style="fill:#010101"
           inkscape:connector-curvature="0"
           d="m 26.599,78.015 c -4.028,0 -7.281,4.892 -7.281,10.902 0,6.009 3.253,10.861 7.281,10.861 4.027,0 7.281,-4.853 7.281,-10.861 -0.001,-6.01 -3.255,-10.902 -7.281,-10.902 z m 0,17.159 c -2.43,0 -4.408,-2.947 -4.408,-6.572 0,-3.625 1.978,-6.572 4.408,-6.572 2.428,0 4.407,2.947 4.407,6.572 0,3.625 -1.979,6.572 -4.407,6.572 z"
           id="path5713" />
        <rect
           style="fill:#010101"
           x="43.289001"
           y="0.227"
           width="5.553"
           height="21.764"
           id="rect5715" />
        <path
           style="fill:#010101"
           inkscape:connector-curvature="0"
           d="m 46.065,48.43 c 4.027,0 7.28,-4.853 7.28,-10.862 0,-6.009 -3.253,-10.902 -7.28,-10.902 -4.027,0 -7.28,4.893 -7.28,10.902 0,6.009 3.253,10.862 7.28,10.862 z m 0,-17.749 c 2.43,0 4.408,2.948 4.408,6.572 0,3.624 -1.979,6.572 -4.408,6.572 -2.429,0 -4.407,-2.948 -4.407,-6.572 0,-3.624 1.977,-6.572 4.407,-6.572 z"
           id="path5717" />
        <rect
           style="fill:#010101"
           x="43.289001"
           y="52.669998"
           width="5.553"
           height="21.764"
           id="rect5719" />
        <path
           style="fill:#010101"
           inkscape:connector-curvature="0"
           d="m 46.065,78.009 c -4.027,0 -7.28,4.891 -7.28,10.9 0,6.011 3.253,10.863 7.28,10.863 4.027,0 7.28,-4.853 7.28,-10.863 0,-6.008 -3.253,-10.9 -7.28,-10.9 z m 0,17.159 c -2.43,0 -4.407,-2.948 -4.407,-6.572 0,-3.625 1.978,-6.573 4.407,-6.573 2.429,0 4.408,2.948 4.408,6.573 0,3.624 -1.978,6.572 -4.408,6.572 z"
           id="path5721" />
        <rect
           style="fill:#010101"
           x="4.5050001"
           y="78.236"
           width="5.552"
           height="21.764"
           id="rect5723" />
        <path
           style="fill:#010101"
           inkscape:connector-curvature="0"
           d="M 7.281,52.453 C 3.253,52.453 0,57.346 0,63.354 c 0,6.01 3.253,10.862 7.281,10.862 4.027,0 7.281,-4.853 7.281,-10.862 0,-6.008 -3.254,-10.901 -7.281,-10.901 z m 0,17.159 c -2.43,0 -4.408,-2.947 -4.408,-6.572 0,-3.625 1.978,-6.572 4.408,-6.572 2.429,0 4.408,2.947 4.408,6.572 0,3.625 -1.979,6.572 -4.408,6.572 z"
           id="path5725" />
        <path
           style="fill:#010101"
           inkscape:connector-curvature="0"
           d="M 7.281,26.004 C 3.253,26.004 0,30.896 0,36.906 c 0,6.009 3.253,10.862 7.281,10.862 4.027,0 7.281,-4.853 7.281,-10.862 0,-6.01 -3.254,-10.902 -7.281,-10.902 z m 0,17.16 c -2.43,0 -4.408,-2.948 -4.408,-6.573 0,-3.625 1.978,-6.572 4.408,-6.572 2.429,0 4.408,2.948 4.408,6.572 -10e-4,3.625 -1.979,6.573 -4.408,6.573 z"
           id="path5727" />
        <path
           style="fill:#010101"
           inkscape:connector-curvature="0"
           d="M 7.281,0 C 3.253,0 0,4.892 0,10.901 c 0,6.01 3.253,10.863 7.281,10.863 4.027,0 7.281,-4.853 7.281,-10.863 C 14.562,4.892 11.308,0 7.281,0 Z m 0,17.159 c -2.43,0 -4.408,-2.948 -4.408,-6.573 0,-3.625 1.978,-6.572 4.408,-6.572 2.429,0 4.408,2.948 4.408,6.572 -10e-4,3.625 -1.979,6.573 -4.408,6.573 z"
           id="path5729" />
      </g>
    </g>
  </g>
</svg>
