<?xml version="1.0" encoding="UTF-8" standalone="no"?>
<!-- Created with Inkscape (http://www.inkscape.org/) -->

<svg
   xmlns:dc="http://purl.org/dc/elements/1.1/"
   xmlns:cc="http://creativecommons.org/ns#"
   xmlns:rdf="http://www.w3.org/1999/02/22-rdf-syntax-ns#"
   xmlns:svg="http://www.w3.org/2000/svg"
   xmlns="http://www.w3.org/2000/svg"
   xmlns:sodipodi="http://sodipodi.sourceforge.net/DTD/sodipodi-0.dtd"
   xmlns:inkscape="http://www.inkscape.org/namespaces/inkscape"
   width="176.01497"
   height="121.6141"
   viewBox="0 0 176.01497 121.6141"
   id="svg2"
   version="1.1"
   inkscape:version="0.91 r13725"
   sodipodi:docname="developer_button.svg">
  <defs
     id="defs4" />
  <sodipodi:namedview
     id="base"
     pagecolor="#ffffff"
     bordercolor="#666666"
     borderopacity="1.0"
     inkscape:pageopacity="0.0"
     inkscape:pageshadow="2"
     inkscape:zoom="1.1103093"
     inkscape:cx="166.5755"
     inkscape:cy="-165.80998"
     inkscape:document-units="px"
     inkscape:current-layer="layer1"
     showgrid="false"
     inkscape:window-width="1916"
     inkscape:window-height="1041"
     inkscape:window-x="0"
     inkscape:window-y="18"
     inkscape:window-maximized="0"
     fit-margin-top="0"
     fit-margin-left="0"
     fit-margin-right="0"
     fit-margin-bottom="0"
     units="px" />
  <metadata
     id="metadata7">
    <rdf:RDF>
      <cc:Work
         rdf:about="">
        <dc:format>image/svg+xml</dc:format>
        <dc:type
           rdf:resource="http://purl.org/dc/dcmitype/StillImage" />
        <dc:title></dc:title>
      </cc:Work>
    </rdf:RDF>
  </metadata>
  <g
     inkscape:label="Layer 1"
     inkscape:groupmode="layer"
     id="layer1"
     transform="translate(-228.74503,-34.244391)">
    <rect
       style="opacity:0;fill:#000080;stroke:#ffffff"
       id="rect3340"
       width="225.26402"
       height="277.79196"
       x="208.09143"
       y="240.19955" />
    <g
       id="g5751"
       transform="matrix(1.8392368,0,0,1.9871584,-355.81756,-440.82209)">
      <g
         id="g4407"
         transform="matrix(-0.65655622,0.01358171,0.33882392,0.82733184,374.62462,230.86461)">
        <path
           id="path4409"
           d="m 73.182,58.748 c -1.766,0 -3.746,-0.657 -5.72,-2.631 -5.889,-5.889 -0.06,-11.855 0,-11.915 L 78.374,33.29 c 0.2,-0.202 4.879,-5.031 0,-9.911 -4.898,-4.898 -9.708,-0.203 -9.91,0 -0.277,0.277 -0.725,0.277 -1.002,0 -0.277,-0.276 -0.277,-0.726 0,-1.002 0.059,-0.061 6.024,-5.89 11.914,0 5.889,5.89 0.06,11.855 0,11.915 L 68.464,45.204 c -0.2,0.202 -4.879,5.031 0,9.911 4.896,4.897 9.707,0.202 9.91,0 0.058,-0.061 6.025,-5.89 11.915,0 0.276,0.276 0.277,0.726 0,1.002 -0.277,0.277 -0.725,0.277 -1.002,0 -4.898,-4.899 -9.709,-0.203 -9.911,0 -0.039,0.04 -2.691,2.63 -6.194,2.631 z"
           inkscape:connector-curvature="0"
           style="fill:#000000" />
      </g>
      <path
         id="path4411"
         d="m 336.29473,249.5797 -0.24393,0.32244 -0.24498,0.32106 c -0.25586,0.33649 0.0871,0.53726 0.0871,0.53726 l 1.50304,1.15336 0.0655,-0.0706 c -0.0724,0.65331 0.47712,1.03037 0.47712,1.03037 l 23.77201,17.29337 c 0.17254,0.14264 0.32759,0.28471 0.46698,0.42737 0.60329,0.61466 0.90711,1.2209 1.04356,1.77789 0.0352,0.13728 0.0573,0.27232 0.0725,0.40395 0.003,0.0331 0.007,0.0671 0.01,0.10044 0.01,0.13973 0.0139,0.27503 0.006,0.40394 -1.2e-4,0.006 3.4e-4,0.0149 -8.1e-4,0.0206 -0.007,0.14389 -0.0258,0.27876 -0.0516,0.40471 -0.003,0.0163 -0.006,0.0312 -0.0105,0.0467 -0.0217,0.10796 -0.0485,0.209 -0.0765,0.30166 -0.006,0.0183 -0.0106,0.0382 -0.017,0.0568 -0.0666,0.2038 -0.14121,0.37137 -0.20214,0.48757 -0.006,0.0122 -0.0118,0.0203 -0.0169,0.0307 -0.0221,0.045 -0.0447,0.0824 -0.0605,0.10824 -0.005,0.009 -0.01,0.0183 -0.0139,0.0231 -0.0136,0.0191 -0.0248,0.0378 -0.0248,0.0378 l 0.84347,0.57141 4.39227,-5.65856 -0.006,-0.005 2.4208,-3.17756 -0.89061,-0.60337 -0.004,0.005 0.002,-0.005 c 0,0 -0.0281,0.0321 -0.0805,0.0861 -0.002,0.005 -0.007,0.01 -0.0121,0.0133 -0.0216,0.0214 -0.0481,0.0477 -0.0774,0.0737 -0.0123,0.011 -0.0238,0.0226 -0.0369,0.0345 -0.0279,0.0234 -0.0593,0.0506 -0.0917,0.0771 -0.0183,0.0161 -0.0344,0.0293 -0.0544,0.045 -0.0375,0.0308 -0.0793,0.0615 -0.12148,0.0939 -0.0186,0.0138 -0.0365,0.0265 -0.0568,0.0407 -0.0604,0.0429 -0.1283,0.0873 -0.1994,0.13147 -0.0318,0.0194 -0.0663,0.0378 -0.0998,0.0568 -0.0459,0.0252 -0.0907,0.0518 -0.14156,0.0764 -0.0398,0.0217 -0.0816,0.0407 -0.12569,0.0609 -0.048,0.0224 -0.0959,0.0442 -0.14652,0.0656 -0.0466,0.0198 -0.0945,0.0376 -0.14379,0.0564 -0.0533,0.0195 -0.10781,0.0371 -0.16391,0.0547 -0.0514,0.016 -0.10334,0.0338 -0.15771,0.0464 -0.062,0.0168 -0.12725,0.0293 -0.19203,0.0442 -0.0531,0.01 -0.10337,0.0228 -0.15921,0.0315 -0.11475,0.0187 -0.23527,0.0321 -0.35984,0.0408 -0.0509,0.003 -0.10675,5.6e-4 -0.15943,0.003 -0.0828,-3.5e-4 -0.16449,0.002 -0.25041,-0.002 -0.0634,-0.002 -0.12911,-0.0101 -0.19377,-0.0159 -0.0822,-0.007 -0.16232,-0.0168 -0.24544,-0.0289 -0.0712,-0.0111 -0.14291,-0.0248 -0.21496,-0.041 -0.14882,-0.0307 -0.29924,-0.0667 -0.45592,-0.11638 -0.33672,-0.10598 -0.69216,-0.25324 -1.06686,-0.46134 l -8.31385,-5.25332 -16.626,-10.50616 c 0,0 -0.55348,-0.37004 -1.18714,-0.0996 l 0.0473,-0.0751 -1.64124,-0.97372 c -8.1e-4,0.002 -0.31195,-0.24205 -0.57036,0.0941 z"
         inkscape:connector-curvature="0"
         style="fill:#000000" />
      <path
         id="path4413"
         d="m 366.78386,272.64199 15.40361,10.28989 c 7.2e-4,-1.3e-4 0.002,4e-4 0.002,4e-4 l 0.32168,0.21897 c 0.10727,0.0733 0.27029,0.0344 0.36193,-0.0868 l 0.15402,-0.20074 0.025,0.0165 1.4099,-1.92284 c 0.0685,-0.11604 0.06,-0.25211 -0.0368,-0.31634 l -0.32271,-0.22035 c -0.002,-0.002 -0.003,-6e-5 -0.005,-4.6e-4 l -15.3762,-10.27307 -1.93705,2.49492 z m 15.93177,9.20944 c 0.062,0.0424 0.10056,0.1052 0.11104,0.174 0.0109,0.0703 -0.008,0.14613 -0.0558,0.20962 -0.0967,0.12612 -0.27721,0.15883 -0.40383,0.0727 l -14.3249,-9.73482 c -0.12674,-0.0868 -0.15036,-0.25779 -0.0545,-0.38377 0.0967,-0.12613 0.27721,-0.15883 0.40384,-0.0727 l 14.32412,9.73497 z"
         inkscape:connector-curvature="0"
         style="fill:#000000" />
      <path
         id="path4415"
         d="m 383.69852,283.31911 4.34644,2.94819 c 0,0 1.85269,1.17037 2.84754,0.69432 l 0.0194,0.0129 c 7.1e-4,-1.4e-4 7.1e-4,-1.4e-4 3.3e-4,-0.002 0.002,-0.008 0.002,-0.0138 0.005,-0.0232 0.006,-0.003 0.0164,-0.007 0.0228,-0.013 l -0.0192,-0.0113 c 0.003,-0.0274 0.002,-0.0538 0.003,-0.0816 0.002,-0.032 0.006,-0.0633 0.004,-0.0953 -0.002,-0.0312 -0.007,-0.0616 -0.0111,-0.0939 -0.005,-0.0376 -0.008,-0.0755 -0.018,-0.11223 -0.004,-0.0252 -0.0146,-0.0507 -0.0208,-0.0771 -0.0138,-0.0438 -0.0276,-0.0876 -0.0433,-0.13179 -0.006,-0.0184 -0.0174,-0.0376 -0.0252,-0.0558 -0.0216,-0.0493 -0.0444,-0.1009 -0.07,-0.14955 -0.007,-0.0128 -0.0143,-0.0233 -0.0218,-0.0352 -0.0302,-0.0571 -0.0628,-0.11314 -0.0994,-0.16834 -0.002,-0.003 -0.005,-0.007 -0.007,-0.0104 -0.47098,-0.71373 -1.29683,-1.31602 -1.29683,-1.31602 l -4.3772,-2.97069 -1.23984,1.69152 z m 4.9273,1.96865 c 0.0602,0.042 0.098,0.10489 0.10836,0.17215 0.0111,0.071 -0.008,0.1486 -0.0579,0.21236 -0.0984,0.12568 -0.27928,0.15609 -0.40453,0.0682 l -3.4758,-2.42129 c -0.12511,-0.0872 -0.14819,-0.25977 -0.0497,-0.38468 0.0984,-0.12567 0.2793,-0.15609 0.40453,-0.0682 l 3.475,2.42143 z"
         inkscape:connector-curvature="0"
         style="fill:#000000" />
      <path
         style="fill:#000000"
         inkscape:connector-curvature="0"
         d="m 406.92889,292.66825 0,-49.8 c 0,-2.1 -1.7,-3.8 -3.8,-3.8 l -74.8,0 c -2.1,0 -3.8,1.7 -3.8,3.8 l 0,49.8 -6.7,0 0,3.8 c 0,2.1 1.7,3.8 3.8,3.8 l 88.1,0 c 2.1,0 3.8,-1.7 3.8,-3.8 l 0,-3.8 -6.6,0 z m -30.7,1.9 c 0,1.1 -0.9,1.9 -1.9,1.9 l -17.2,0 c -1.1,0 -1.9,-0.9 -1.9,-1.9 l 0,-1.9 21.1,0 0,1.9 z m 26.9,-5.7 -74.8,0 0,-44.1 c 0,-1.1 0.9,-1.9 1.9,-1.9 l 70.9,0 c 1.1,0 1.9,0.9 1.9,1.9 l 0,44.1 z"
         id="path5301" />
      <g
         transform="matrix(0.37300405,0,0,0.29692833,380.83603,245.36562)"
         id="g5737">
        <path
           style="fill:#010101"
           inkscape:connector-curvature="0"
           d="m 26.599,0.22 c -4.028,0 -7.281,4.893 -7.281,10.901 0,6.01 3.253,10.863 7.281,10.863 4.027,0 7.281,-4.853 7.281,-10.863 C 33.879,5.112 30.625,0.22 26.599,0.22 Z m 0,17.159 c -2.43,0 -4.408,-2.948 -4.408,-6.572 0,-3.625 1.978,-6.573 4.408,-6.573 2.428,0 4.407,2.948 4.407,6.573 -0.001,3.624 -1.979,6.572 -4.407,6.572 z"
           id="path5707" />
        <rect
           style="fill:#010101"
           x="23.822001"
           y="26.674"
           width="5.5510001"
           height="21.764"
           id="rect5709" />
        <rect
           style="fill:#010101"
           x="23.822001"
           y="52.898998"
           width="5.5510001"
           height="21.764999"
           id="rect5711" />
        <path
           style="fill:#010101"
           inkscape:connector-curvature="0"
           d="m 26.599,78.015 c -4.028,0 -7.281,4.892 -7.281,10.902 0,6.009 3.253,10.861 7.281,10.861 4.027,0 7.281,-4.853 7.281,-10.861 -0.001,-6.01 -3.255,-10.902 -7.281,-10.902 z m 0,17.159 c -2.43,0 -4.408,-2.947 -4.408,-6.572 0,-3.625 1.978,-6.572 4.408,-6.572 2.428,0 4.407,2.947 4.407,6.572 0,3.625 -1.979,6.572 -4.407,6.572 z"
           id="path5713" />
        <rect
           style="fill:#010101"
           x="43.289001"
           y="0.227"
           width="5.553"
           height="21.764"
           id="rect5715" />
        <path
           style="fill:#010101"
           inkscape:connector-curvature="0"
           d="m 46.065,48.43 c 4.027,0 7.28,-4.853 7.28,-10.862 0,-6.009 -3.253,-10.902 -7.28,-10.902 -4.027,0 -7.28,4.893 -7.28,10.902 0,6.009 3.253,10.862 7.28,10.862 z m 0,-17.749 c 2.43,0 4.408,2.948 4.408,6.572 0,3.624 -1.979,6.572 -4.408,6.572 -2.429,0 -4.407,-2.948 -4.407,-6.572 0,-3.624 1.977,-6.572 4.407,-6.572 z"
           id="path5717" />
        <rect
           style="fill:#010101"
           x="43.289001"
           y="52.669998"
           width="5.553"
           height="21.764"
           id="rect5719" />
        <path
           style="fill:#010101"
           inkscape:connector-curvature="0"
           d="m 46.065,78.009 c -4.027,0 -7.28,4.891 -7.28,10.9 0,6.011 3.253,10.863 7.28,10.863 4.027,0 7.28,-4.853 7.28,-10.863 0,-6.008 -3.253,-10.9 -7.28,-10.9 z m 0,17.159 c -2.43,0 -4.407,-2.948 -4.407,-6.572 0,-3.625 1.978,-6.573 4.407,-6.573 2.429,0 4.408,2.948 4.408,6.573 0,3.624 -1.978,6.572 -4.408,6.572 z"
           id="path5721" />
        <rect
           style="fill:#010101"
           x="4.5050001"
           y="78.236"
           width="5.552"
           height="21.764"
           id="rect5723" />
        <path
           style="fill:#010101"
           inkscape:connector-curvature="0"
           d="M 7.281,52.453 C 3.253,52.453 0,57.346 0,63.354 c 0,6.01 3.253,10.862 7.281,10.862 4.027,0 7.281,-4.853 7.281,-10.862 0,-6.008 -3.254,-10.901 -7.281,-10.901 z m 0,17.159 c -2.43,0 -4.408,-2.947 -4.408,-6.572 0,-3.625 1.978,-6.572 4.408,-6.572 2.429,0 4.408,2.947 4.408,6.572 0,3.625 -1.979,6.572 -4.408,6.572 z"
           id="path5725" />
        <path
           style="fill:#010101"
           inkscape:connector-curvature="0"
           d="M 7.281,26.004 C 3.253,26.004 0,30.896 0,36.906 c 0,6.009 3.253,10.862 7.281,10.862 4.027,0 7.281,-4.853 7.281,-10.862 0,-6.01 -3.254,-10.902 -7.281,-10.902 z m 0,17.16 c -2.43,0 -4.408,-2.948 -4.408,-6.573 0,-3.625 1.978,-6.572 4.408,-6.572 2.429,0 4.408,2.948 4.408,6.572 -10e-4,3.625 -1.979,6.573 -4.408,6.573 z"
           id="path5727" />
        <path
           style="fill:#010101"
           inkscape:connector-curvature="0"
           d="M 7.281,0 C 3.253,0 0,4.892 0,10.901 c 0,6.01 3.253,10.863 7.281,10.863 4.027,0 7.281,-4.853 7.281,-10.863 C 14.562,4.892 11.308,0 7.281,0 Z m 0,17.159 c -2.43,0 -4.408,-2.948 -4.408,-6.573 0,-3.625 1.978,-6.572 4.408,-6.572 2.429,0 4.408,2.948 4.408,6.572 -10e-4,3.625 -1.979,6.573 -4.408,6.573 z"
           id="path5729" />
      </g>
    </g>
    <path
       style="opacity:1;fill:#5e81d3;fill-opacity:1;stroke:#ffffff;stroke-width:0.82490891"
       d="m 248.23392,88.541019 c 0,-32.99335 0.23477,-44.159185 0.94488,-44.938555 1.36904,-1.502569 133.74907,-1.502569 135.11811,0 0.71011,0.77937 0.94488,11.945205 0.94488,44.938555 l 0,43.901511 -68.50393,0 -68.50394,0 0,-43.901511 z m 114.96063,39.971331 c 0,-1.73641 -2.77785,-4.5002 -7.7759,-7.73656 -2.20213,-1.42594 -4.01091,-2.99438 -4.0195,-3.48541 -0.0179,-1.02416 -27.63409,-21.144375 -29.02188,-21.144375 -1.41171,0 -1.05589,-1.033236 1.47482,-4.282612 2.68192,-3.44353 2.06221,-5.288163 -1.22441,-3.644614 -1.11481,0.557482 -2.93907,1.013602 -4.05392,1.013602 -1.25825,0 -10.87493,-6.025638 -25.35665,-15.888017 -23.06428,-15.707296 -32.66226,-21.272711 -36.68639,-21.272711 -3.36932,0 -5.9346,3.543835 -5.9346,8.198404 0,8.252907 2.32554,11.519532 18.29399,25.697082 15.14163,13.443456 18.20693,18.425941 15.22697,24.750621 -1.81865,3.85991 -4.95606,3.65633 -11.47371,-0.7445 -3.68551,-2.48853 -5.98236,-3.45599 -8.20572,-3.45634 -3.36326,-5.2e-4 -5.96751,1.92118 -5.96751,4.40348 0,2.61137 1.5544,2.77123 3.29749,0.33909 2.08501,-2.9092 4.43594,-2.54009 10.74734,1.68738 5.08513,3.40609 7.9428,4.3607 10.744,3.58907 3.93436,-1.08378 5.61547,-9.07584 3.07097,-14.59948 -2.47254,-5.367412 -5.21096,-8.477876 -15.10649,-17.158867 -12.80518,-11.233525 -14.92473,-13.425484 -16.75932,-17.331909 -2.87923,-6.130802 -1.23395,-11.917219 3.38848,-11.917219 1.86527,0 3.20434,0.889996 5.66402,3.764507 1.77167,2.070477 13.23033,11.624607 25.46368,21.2314 22.38977,17.582581 23.38557,18.597422 22.86698,23.304198 -0.35241,3.19854 1.38043,3.09132 3.68731,-0.22815 l 2.09005,-3.00747 14.93691,10.82109 c 8.81049,6.38279 15.41068,10.62156 16.09204,10.3346 0.63531,-0.26758 1.15512,-0.16011 1.15512,0.23881 0,0.39892 2.21457,2.32765 4.92126,4.28606 5.1182,3.70325 8.46457,4.58835 8.46457,2.23884 z m -11.18736,-29.125584 0.22998,-6.697574 -2.39533,0 -2.39532,0 0,6.971027 0,6.971021 2.16535,-0.27345 c 2.13145,-0.26917 2.16895,-0.37833 2.39532,-6.971024 z m 14.68602,4.344774 c 2.92442,-4.582433 0.64734,-11.042348 -3.89236,-11.042348 -3.15999,0 -5.11811,2.479749 -5.11811,6.481523 0,4.001775 1.95812,6.481525 5.11811,6.481525 1.86298,0 3.03601,-0.57883 3.89236,-1.9207 z m 13.38583,0 c 2.92441,-4.582433 0.64733,-11.042348 -3.89237,-11.042348 -3.15998,0 -5.11811,2.479749 -5.11811,6.481523 0,4.001775 1.95813,6.481525 5.11811,6.481525 1.86299,0 3.03601,-0.57883 3.89237,-1.9207 z M 352.13987,90.114826 c 2.15717,-1.267089 3.27085,-5.5258 2.26948,-8.678514 -1.46496,-4.612275 -5.08528,-5.577821 -8.17972,-2.181547 -2.39089,2.62409 -2.50964,6.346938 -0.30077,9.428969 1.70697,2.38172 3.77958,2.859276 6.21101,1.431092 z m 12.62948,-5.635562 c 0,-6.337487 -0.0438,-6.481521 -1.9685,-6.481521 -1.92476,0 -1.96851,0.144034 -1.96851,6.481521 0,6.337488 0.0438,6.481523 1.96851,6.481523 1.92475,0 1.9685,-0.144035 1.9685,-6.481523 z m 13.38583,-0.432101 c 0,-6.798397 -0.0328,-6.913624 -1.96851,-6.913624 -1.93569,0 -1.9685,0.115227 -1.9685,6.913624 0,6.798397 0.0328,6.913624 1.9685,6.913624 1.9357,0 1.96851,-0.115227 1.96851,-6.913624 z m -26.01531,-9.48799 c 0.79212,-0.465279 1.81339,-2.020843 2.26948,-3.456812 1.45881,-4.592923 -1.11886,-9.524475 -4.97835,-9.524475 -2.16441,0 -5.13409,3.999001 -5.13409,6.913623 0,1.68379 0.71442,3.455272 1.93272,4.792399 2.07756,2.2802 3.62934,2.615032 5.91024,1.275265 z m 12.62948,-5.635562 c 0,-6.337488 -0.0438,-6.481523 -1.9685,-6.481523 -1.92476,0 -1.96851,0.144035 -1.96851,6.481523 0,6.337488 0.0438,6.481522 1.96851,6.481522 1.92475,0 1.9685,-0.144034 1.9685,-6.481522 z m 15.30969,4.560826 c 2.92441,-4.582434 0.64733,-11.042349 -3.89237,-11.042349 -3.15998,0 -5.11811,2.479749 -5.11811,6.481523 0,4.001774 1.95813,6.481522 5.11811,6.481522 1.86299,0 3.03601,-0.578831 3.89237,-1.920696 z M 353.3065,58.176289 c 0.7588,-0.920254 1.41673,-3.108945 1.46205,-4.863759 0.0643,-2.48728 -0.40354,-3.649329 -2.12214,-5.2718 -2.4841,-2.345139 -4.72581,-2.1056 -6.97155,0.744947 -4.45886,5.659685 3.06958,14.923321 7.63164,9.390612 z m 13.38671,-0.247505 c 1.60592,-2.516405 1.56541,-7.469617 -0.0774,-9.461946 -1.87217,-2.270495 -6.16205,-2.081088 -7.70733,0.340294 -1.72163,2.69773 -1.55187,7.227601 0.34906,9.313941 2.13992,2.348643 5.87575,2.252033 7.43567,-0.192289 z m 11.46197,-4.560826 c 0,-6.337488 -0.0438,-6.481523 -1.96851,-6.481523 -1.92475,0 -1.9685,0.144035 -1.9685,6.481523 0,6.337488 0.0438,6.481522 1.9685,6.481522 1.92476,0 1.96851,-0.144034 1.96851,-6.481522 z"
       id="path5936"
       inkscape:connector-curvature="0" />
    <path
       style="opacity:1;fill:#5e81d3;fill-opacity:1;stroke:#ffffff;stroke-width:0.82490891"
       d="m 298.7851,146.96113 c -0.51969,-0.57036 -0.94488,-2.12593 -0.94488,-3.4568 l 0,-2.41977 18.89764,0 18.89763,0 0,2.41977 c 0,1.33087 -0.42519,2.88644 -0.94488,3.4568 -1.33858,1.46916 -34.56693,1.46916 -35.90551,0 z"
       id="path5938"
       inkscape:connector-curvature="0" />
    <path
       style="opacity:1;fill:#5e81d3;fill-opacity:1;stroke:#ffffff;stroke-width:0.82490891"
       d="m 347.47194,54.716399 c -1.08234,-2.219621 0.2691,-5.471167 2.10866,-5.073442 1.98898,0.430031 3.12843,3.027191 2.1082,4.805255 -1.25946,2.194994 -3.21661,2.319467 -4.21686,0.268187 z"
       id="path5940"
       inkscape:connector-curvature="0" />
    <path
       style="opacity:1;fill:#5e81d3;fill-opacity:1;stroke:#ffffff;stroke-width:0.82490891"
       d="m 360.84102,55.107835 c -0.80198,-1.06058 -0.8274,-1.841224 -0.11578,-3.555411 1.01694,-2.449624 2.98434,-2.507941 4.34939,-0.128923 1.74805,3.046518 -2.15045,6.43922 -4.23361,3.684334 z"
       id="path5942"
       inkscape:connector-curvature="0" />
    <path
       style="opacity:1;fill:#5e81d3;fill-opacity:1;stroke:#ffffff;stroke-width:0.82490891"
       d="m 347.44652,70.219915 c -1.0926,-2.240666 0.25605,-5.185217 2.3749,-5.185217 1.90466,0 2.94894,3.783291 1.55362,5.628541 -1.34841,1.78321 -2.92984,1.60475 -3.92852,-0.443324 z"
       id="path5944"
       inkscape:connector-curvature="0" />
    <path
       style="opacity:1;fill:#5e81d3;fill-opacity:1;stroke:#ffffff;stroke-width:0.78740156"
       d=""
       id="path5946"
       inkscape:connector-curvature="0" />
    <path
       style="opacity:1;fill:#5e81d3;fill-opacity:1;stroke:#ffffff;stroke-width:0.82490891"
       d="m 347.47194,85.827707 c -1.08234,-2.219622 0.2691,-5.471168 2.10866,-5.073442 1.98898,0.430029 3.12843,3.02719 2.1082,4.805253 -1.25946,2.194995 -3.21661,2.319468 -4.21686,0.268189 z"
       id="path5950"
       inkscape:connector-curvature="0" />
    <path
       style="opacity:1;fill:#5e81d3;fill-opacity:1;stroke:#ffffff;stroke-width:0.82490891"
       d="m 360.98982,101.15838 c -1.27512,-1.399496 -1.18882,-2.892773 0.25901,-4.481825 2.15987,-2.370542 4.89744,0.390455 3.87902,3.912215 -0.52629,1.81992 -2.72328,2.12234 -4.13803,0.56961 z"
       id="path5952"
       inkscape:connector-curvature="0" />
    <path
       style="opacity:1;fill:#5e81d3;fill-opacity:1;stroke:#ffffff;stroke-width:0.82490891"
       d="m 374.37565,101.15838 c -1.27512,-1.399496 -1.18883,-2.892773 0.25901,-4.481825 2.15987,-2.370542 4.89744,0.390455 3.87901,3.912215 -0.52629,1.81992 -2.72328,2.12234 -4.13802,0.56961 z"
       id="path5954"
       inkscape:connector-curvature="0" />
    <path
       style="opacity:1;fill:#5e81d3;fill-opacity:1;stroke:#ffffff;stroke-width:0.82490891"
       d="m 374.37565,70.911278 c -1.28327,-1.40844 -1.18707,-2.894698 0.29246,-4.518547 1.72091,-1.888755 2.59059,-1.702098 3.61971,0.776882 1.4298,3.444134 -1.56956,6.312767 -3.91217,3.741665 z"
       id="path5956"
       inkscape:connector-curvature="0" />
  </g>
</svg>
