<?xml version="1.0" encoding="UTF-8" standalone="no"?>
<!-- Created with Inkscape (http://www.inkscape.org/) -->

<svg
   xmlns:dc="http://purl.org/dc/elements/1.1/"
   xmlns:cc="http://creativecommons.org/ns#"
   xmlns:rdf="http://www.w3.org/1999/02/22-rdf-syntax-ns#"
   xmlns:svg="http://www.w3.org/2000/svg"
   xmlns="http://www.w3.org/2000/svg"
   xmlns:sodipodi="http://sodipodi.sourceforge.net/DTD/sodipodi-0.dtd"
   xmlns:inkscape="http://www.inkscape.org/namespaces/inkscape"
   width="32.479382mm"
   height="39.26495mm"
   viewBox="0 0 115.08442 139.12777"
   id="svg8629"
   version="1.1"
   inkscape:version="0.91 r13725"
   sodipodi:docname="end_user_button.svg">
  <defs
     id="defs8631" />
  <sodipodi:namedview
     id="base"
     pagecolor="#ffffff"
     bordercolor="#666666"
     borderopacity="1.0"
     inkscape:pageopacity="0.0"
     inkscape:pageshadow="2"
     inkscape:zoom="3.77"
     inkscape:cx="126.44699"
     inkscape:cy="69.857973"
     inkscape:document-units="px"
     inkscape:current-layer="layer5"
     showgrid="false"
     fit-margin-top="0"
     fit-margin-left="0"
     fit-margin-right="0"
     fit-margin-bottom="0"
     inkscape:window-width="1916"
     inkscape:window-height="1041"
     inkscape:window-x="0"
     inkscape:window-y="18"
     inkscape:window-maximized="0" />
  <metadata
     id="metadata8634">
    <rdf:RDF>
      <cc:Work
         rdf:about="">
        <dc:format>image/svg+xml</dc:format>
        <dc:type
           rdf:resource="http://purl.org/dc/dcmitype/StillImage" />
        <dc:title></dc:title>
      </cc:Work>
    </rdf:RDF>
  </metadata>
  <g
     inkscape:label="Layer 1"
     inkscape:groupmode="layer"
     id="layer1"
     transform="translate(-205.06019,-314.90369)" />
  <g
     inkscape:groupmode="layer"
     id="layer5"
     inkscape:label="Layer 2"
     transform="translate(-205.06019,-314.90369)">
    <g
       id="g10163"
       transform="matrix(0.54825079,0,0,0.58497683,92.635779,125.14513)">
      <path
         id="path8941"
         d="m 308.86888,414.44034 2.29,0 c 0,0 20.61,-5.58217 30.42428,-27.32328 0,0 9.81429,-7.63877 3.92572,-14.98374 0,0 -3.59857,-1.46899 -6.54286,7.63877 l 2.61714,-13.22095 c 0,0 -0.65428,-4.40698 -4.90714,-4.40698 0,0 -12.43143,2.93799 -30.09714,-3.52558 0,0 -12.10428,-4.40698 -16.68428,-12.63335 0,0 -6.21572,0.8814 -11.45,13.51474 0,0 0.32714,12.04575 1.96286,17.92173 -0.98143,-2.64419 -3.27143,-6.75737 -6.21572,-4.40698 0,0 -5.23428,4.40698 3.59857,13.51474 -0.32714,0 12.10429,24.0915 31.07857,27.91088 z"
         inkscape:connector-curvature="0"
         style="fill:none" />
      <path
         id="path8945"
         d="m 401.77744,556.34514 -183.85426,0 c -1.96286,0 -3.27143,1.1752 -3.27143,2.93799 0,1.76279 1.30857,2.93799 3.27143,2.93799 l 183.85426,0 c 1.96286,0 3.27143,-1.1752 3.27143,-2.93799 0,-1.46899 -1.63571,-2.93799 -3.27143,-2.93799 z"
         inkscape:connector-curvature="0" />
      <path
         id="path8949"
         d="m 256.85317,416.20313 c 26.82571,8.52017 36.31286,-3.81938 36.31286,-3.81938 l 8.17857,4.70078 c 8.50571,4.11318 14.06714,1.46899 14.06714,1.46899 4.58,-1.76279 11.45,-5.58217 11.45,-5.58217 12.75857,12.33955 36.31285,3.52558 36.31285,3.52558 -10.14143,-4.11318 -14.06714,-10.87055 -15.70286,-17.04033 6.21572,4.40699 15.37572,1.1752 15.37572,1.1752 -6.87,2.05659 -14.39429,-9.10776 -15.70286,-10.87055 0,-0.2938 0.32714,-0.2938 0.32714,-0.2938 6.54286,-6.75737 5.56143,-12.92715 5.56143,-12.92715 -0.32714,-6.75737 -4.90714,-6.16977 -4.90714,-6.16977 3.92571,-24.0915 -4.25286,-32.61166 -4.25286,-32.61166 -21.91857,-22.62251 -52.99713,-9.69536 -52.99713,-9.69536 -27.48,10.28295 -16.68429,42.60082 -16.68429,42.60082 -5.88857,-0.5876 -5.56143,5.58217 -5.56143,5.58217 -0.65428,8.52017 5.56143,13.80854 5.56143,13.80854 0,0 0.32715,0.2938 0.32715,0.2938 -1.30858,2.05659 -8.83286,12.92715 -15.70286,10.87056 0,0 8.17857,2.93798 14.72143,-0.8814 -5.23429,13.51474 -16.68429,15.86513 -16.68429,15.86513 z m 17.01143,-43.18841 c 2.94429,-2.35039 4.90714,1.76279 6.21571,4.40698 -1.63571,-5.87598 -1.96285,-17.92173 -1.96285,-17.92173 5.23428,-12.63334 11.45,-13.51474 11.45,-13.51474 4.90714,8.22637 16.68428,12.63335 16.68428,12.63335 17.66571,6.46357 30.09714,3.52558 30.09714,3.52558 4.25286,0.2938 4.90714,4.40698 4.90714,4.40698 l -2.61714,13.22095 c 2.94428,-9.10776 6.54285,-7.63877 6.54285,-7.63877 5.88858,7.34497 -3.92571,14.98374 -3.92571,14.98374 -9.48714,21.44731 -30.42428,27.32328 -30.42428,27.32328 l -2.29,0 c -19.30143,-3.81938 -31.73285,-27.91088 -31.73285,-27.91088 -8.17858,-9.10776 -2.94429,-13.51474 -2.94429,-13.51474 z"
         inkscape:connector-curvature="0"
         style="fill:#000000" />
      <polygon
         transform="matrix(3.2714282,0,0,2.9379876,146.2789,296.33324)"
         id="polygon8951"
         points="48.9,47.7 47.6,51.1 52.3,51.1 51,47.6 53.1,45.2 51.6,43.6 48.3,43.6 46.7,45.2 "
         style="fill:#000000" />
      <path
         id="path8953"
         d="m 330.46031,446.46441 55.28713,0 c -0.65428,-1.7628 -1.63571,-3.52559 -2.61714,-4.40699 0,0 -4.25285,-4.99457 -14.06714,-8.52016 0,0 -31.73285,-9.10776 -32.71428,-9.10776 0,0 0.65428,10.28296 -5.88857,22.03491 z"
         inkscape:connector-curvature="0"
         style="fill:#000000" />
      <path
         id="path8955"
         d="m 283.35174,424.4295 c 0,0 -29.11571,7.63877 -37.62142,11.16435 0,0 -8.83286,4.40698 -9.81429,6.75737 0,0 -0.98143,1.469 -1.96285,4.40699 l 54.95999,0 c -3.59857,-6.46358 -5.88857,-13.80855 -5.56143,-22.32871 z"
         inkscape:connector-curvature="0"
         style="fill:#000000" />
      <g
         id="g10156">
        <ellipse
           style="fill:none"
           cx="309.85031"
           cy="501.40479"
           id="circle8943"
           rx="7.5242848"
           ry="6.7573714" />
        <path
           inkscape:connector-curvature="0"
           d="m 407.99316,449.98999 -194.97712,0 c 0,0 -10.14143,1.1752 -7.52429,11.16435 l 20.28286,86.08304 c 0,0 0.98142,4.99458 6.54285,4.99458 l 155.39284,0 c 0,0 5.56143,-0.5876 7.52429,-6.46357 l 19.62857,-84.61405 c -0.32715,0.2938 2.28999,-9.10776 -6.87,-11.16435 z m -98.14285,58.17216 c -4.25286,0 -7.52428,-2.93799 -7.52428,-6.75738 0,-3.81938 3.27142,-6.75737 7.52428,-6.75737 4.25286,0 7.52428,2.93799 7.52428,6.75737 0,3.81939 -3.27142,6.75738 -7.52428,6.75738 z"
           id="path8947" />
        <path
           style="fill:#000000;fill-opacity:1;fill-rule:nonzero;stroke:none;stroke-width:1px;stroke-linecap:butt;stroke-linejoin:miter;stroke-opacity:1"
           id="path10152"
           d="m 312.13861,515.86839 c -1.46219,-1.84559 -2.73181,-3.82662 -3.89046,-5.87307 -0.81538,-1.48498 -1.58536,-2.9949 -2.34771,-4.50621 -0.20556,-0.16989 -0.41469,-0.91336 -0.35345,-0.5314 0.015,0.0935 0.12816,0.15313 0.14029,0.24705 0.0257,0.19923 -0.32452,-0.47953 -0.0485,0.0267 -1.3733,-1.05277 -2.93785,-1.80386 -4.42302,-2.68161 -0.0838,-0.0376 -0.32895,-0.1621 -0.25144,-0.1128 0.45003,0.28622 0.9877,0.47189 1.51521,0.52946 2.76181,0.30143 3.91314,-0.63383 6.50264,-2.96168 0.60846,-0.54698 0.65296,-1.50045 0.97944,-2.25067 0.0479,-0.25576 -0.0192,-0.56433 0.14361,-0.76728 0.0879,-0.10962 0.0849,0.27098 0.1585,0.39074 0.0414,0.0674 0.10656,0.12306 0.17803,0.15699 0.0541,0.0257 0.13544,-0.0281 0.17937,0.0127 0.4453,0.41334 0.79127,0.92241 1.20003,1.37192 0.30753,0.15193 0.45778,0.58745 0.77831,0.754 0.0728,0.0378 -0.0891,-0.14405 -0.15778,-0.18889 -0.50794,-0.33155 -0.50853,-0.29547 -1.1121,-0.54297 10.25689,2.93142 6.11124,17.43684 -4.14564,14.50542 l 0,0 c -0.4591,-0.15765 -0.92964,-0.28527 -1.3773,-0.47297 -2.06069,-0.86404 -3.75524,-2.37505 -5.24055,-4.00882 -1.44909,-1.64057 -2.85556,-3.2831 -3.88273,-5.24165 -1.27044,-2.42245 -1.69621,-4.99854 -1.70742,-7.70802 0.39209,-1.31561 0.29507,-2.89418 1.17625,-3.94683 1.43962,-1.71975 3.4454,-2.93444 5.44097,-3.95803 0.75617,-0.38787 1.69725,-0.18609 2.54577,-0.13862 1.70376,0.0953 3.296,0.78612 4.76319,1.59672 2.15133,1.2769 4.4063,2.39792 6.33192,4.02139 0.42966,0.37902 0.87478,0.7412 1.28897,1.13707 1.22551,1.17131 2.12916,2.62963 2.92004,4.11436 0.2098,0.50494 -0.0447,-0.0926 0.55802,1.06544 0.47163,0.90623 0.89151,1.8412 1.41246,2.72186 0.86432,1.57854 1.89314,3.05369 3.00125,4.471 6.2004,8.68055 -6.07576,17.44923 -12.27615,8.76868 z"
           inkscape:connector-curvature="0" />
        <path
           style="fill:#000000;fill-opacity:1;fill-rule:nonzero;stroke:none;stroke-width:1px;stroke-linecap:butt;stroke-linejoin:miter;stroke-opacity:1"
           id="path10154"
           d="m 301.79136,506.29633 c 0.86114,-3.70785 1.7594,-7.39826 2.44015,-11.14506 0.41817,-2.36792 0.85299,-4.73247 1.30597,-7.09393 2.01169,-10.47616 16.82722,-7.6312 14.81553,2.84496 l 0,0 c -0.44567,2.31826 -0.87025,4.64014 -1.28175,6.96474 -0.7239,3.93143 -1.6385,7.81214 -2.55294,11.70194 -2.31412,10.41354 -17.04108,7.14088 -14.72696,-3.27265 z"
           inkscape:connector-curvature="0" />
      </g>
    </g>
    <path
       style="fill:#ffffff"
       id="path9508"
       d="m 277.19903,414.54189 c -2.90003,-1.98647 -3.74487,-1.29587 -6.34876,-3.6888 -4.06515,-3.73493 -8.98802,-7.9838 -13.8215,-9.18294 0,0 1.18101,1.10369 3.3681,3.10439 0.15329,0.14696 0.19332,0.21618 0.16316,0.27402 -0.0463,0.0907 -0.25447,-0.0145 -0.25447,-0.0145 -1.68995,-0.74117 -3.59844,-1.16154 -4.89161,-1.06514 -0.42804,0.0316 -0.56515,0.11126 -0.62602,0.2519 -0.0285,0.0661 -0.0326,0.24401 0.11105,0.46431 0.56515,0.86127 1.92605,2.54875 4.19019,4.15056 2.32694,1.64543 6.43623,3.97989 10.0706,5.84373 1.62661,0.83378 2.79885,1.94822 2.42566,3.23397 -0.4168,1.43272 -2.02559,1.62774 -3.3108,1.03511 -1.04419,-0.48136 -2.0201,-1.99026 -3.6053,-4.01434 -2.74648,-3.50769 -4.0498,-4.90691 -8.60743,-3.83734 -2.2847,0.53636 -4.44054,2.69161 -6.16476,4.96633 -1.15059,1.67262 -1.70366,3.06393 -1.87038,4.74161 0,0 -0.31424,-0.66532 -0.002,-2.36733 0.5454,-2.97323 -0.64192,-4.25013 -0.64192,-4.25013 -6.01204,9.82709 2.53945,18.71168 9.13143,10.2029 0,0 -2.15665,5.5207 -1.97704,7.23978 -0.91997,0.34767 -1.32855,1.32305 0.0482,2.50007 1.50432,1.28576 5.19928,1.1745 8.11385,-0.26929 5.44168,-2.69571 8.8331,-7.71925 10.51427,-10.90929 0.39267,-0.74591 0.8081,-1.10876 1.09574,-1.22729 0.43627,-0.18141 3.43776,0.0272 4.84308,-0.89256 0.19551,0.10968 0.44449,0.16846 0.77245,0.1397 1.01841,-0.0891 1.63867,-1.49404 1.63867,-1.49404 0,0 -1.28522,-2.82593 -4.36431,-4.93535 z m -11.28151,14.11293 c -2.7876,2.28831 -5.81103,2.92677 -7.68004,1.97921 2.95652,-2.471 8.39738,-8.65165 8.39738,-8.65165 0,0 -0.90545,-2.62903 -2.53836,-1.01931 -1.57944,1.55661 -3.03851,3.50136 -3.61517,4.12243 -0.35674,0.38339 -0.96193,1.10813 -1.31949,0.79649 -0.43517,-0.37896 0.86019,-3.73747 1.85063,-6.52074 1.3513,-3.79594 -0.20346,-4.98182 -2.02338,-4.87657 -1.63073,0.0945 -3.8584,1.2336 -5.4543,2.35848 -0.45189,0.31891 -0.76038,0.51487 -0.87445,0.39318 -0.0998,-0.10714 0.006,-0.30879 0.30218,-0.59736 4.24228,-4.14298 10.29627,-4.0352 10.83756,-1.0035 0.43078,2.41789 -4.05034,8.50657 -3.75584,8.60424 0.0285,0.009 0.0927,-0.0279 0.18646,-0.10178 1.47086,-2.21909 4.256,-5.62627 5.30074,-5.49447 1.87202,0.23578 2.51806,3.09553 2.51806,3.09553 l -6.24127,6.49135 c 1.28906,0.40361 2.69877,0.54932 4.10929,0.42447 z"
       inkscape:connector-curvature="0" />
    <path
       style="opacity:1;fill:#ddff55;fill-opacity:1;stroke:#ffffff;stroke-width:0.26525199"
       d="m 54.67172,51.928526 c -2.93694,-1.05678 -6.547193,-3.739758 -9.229252,-6.858766 -1.57919,-1.836467 -2.631811,-3.350151 -6.617497,-9.516065 -1.590667,-2.460784 -2.113463,-4.166966 -1.722126,-5.620279 0.596096,-2.213731 2.058233,-2.241833 3.310556,-0.06363 l 0.707315,1.230253 -0.153711,-1.193634 c -0.931572,-7.234109 -0.916952,-9.170792 0.0851,-11.27321 1.025754,-2.152147 2.711437,-4.326105 4.053191,-5.227238 l 1.107143,-0.743565 0.49828,0.819357 c 0.805652,1.324788 2.950591,3.320984 4.976991,4.631855 2.329482,1.506934 4.753462,2.521028 8.296574,3.470947 2.481144,0.665202 3.180198,0.734392 7.880845,0.780013 l 5.158197,0.05006 0.74366,0.832303 c 0.409016,0.457766 0.743013,1.039306 0.742218,1.292309 -7.96e-4,0.253003 -0.299202,2.006677 -0.66313,3.897052 -0.363926,1.890375 -0.654809,3.561463 -0.646404,3.713528 0.0084,0.152065 0.313165,-0.380017 0.67725,-1.182404 0.744066,-1.639819 1.838968,-2.917772 2.499835,-2.917772 0.25673,0 0.638319,0.438479 0.914409,1.050739 0.84662,1.877471 0.228517,4.219602 -1.698531,6.4361 -0.54218,0.623618 -1.536965,2.177474 -2.210634,3.453012 -2.890875,5.473645 -7.851777,10.204003 -13.284849,12.667475 -2.054429,0.931523 -3.403615,0.999053 -5.425429,0.271557 z"
       id="path10484"
       inkscape:connector-curvature="0"
       transform="translate(205.06019,314.90369)" />
    <path
       style="opacity:1;fill:#ddff55;fill-opacity:1;stroke:#ffffff;stroke-width:0.26525199"
       d="m 51.24143,119.83979 c -1.87216,-0.4563 -2.900122,-1.72875 -2.115132,-2.61817 0.216099,-0.24485 0.478997,-0.96977 0.584218,-1.61093 0.10522,-0.64116 0.535987,-2.18543 0.957259,-3.43172 0.421273,-1.24629 0.76595,-2.37928 0.76595,-2.51777 0,-0.13849 -0.599343,0.30882 -1.331874,0.99402 -1.585064,1.48264 -2.732794,2.00981 -4.375696,2.00981 -1.484433,0 -2.435717,-0.46567 -3.554643,-1.74006 -1.569095,-1.7871 -2.088654,-4.18191 -1.509689,-6.95864 0.397066,-1.90434 1.314297,-4.033398 1.73765,-4.033398 0.424854,0 0.602082,1.583848 0.414432,3.703708 -0.123765,1.39816 -0.08908,2.12798 0.106895,2.2491 0.184503,0.11403 0.290113,-0.10066 0.290113,-0.58975 0,-2.17174 3.785829,-7.098616 6.457852,-8.404249 1.647709,-0.805122 4.225819,-1.129525 5.537167,-0.696741 0.513519,0.169476 1.486254,0.852917 2.161634,1.518756 1.264925,1.247057 1.587124,1.899415 0.763772,1.546415 -2.040059,-0.874648 -2.799199,-0.997442 -4.365564,-0.706146 -0.872872,0.162328 -2.103961,0.545378 -2.735753,0.851224 -1.574433,0.762171 -3.575076,2.325981 -3.575076,2.794471 0,0.53109 0.05686,0.51245 1.760363,-0.57727 1.628489,-1.04173 3.945763,-1.95477 4.961165,-1.95477 0.348692,0 0.948491,0.24739 1.332886,0.54976 1.050622,0.82641 0.939243,2.29468 -0.494732,6.52187 -0.656499,1.93528 -1.193634,3.70219 -1.193634,3.92645 0,1.0096 1.10849,0.25016 3.276512,-2.24476 2.477052,-2.85056 3.188321,-3.21829 3.956666,-2.04565 0.482114,0.7358 0.443864,0.78479 -4.638152,5.94033 l -3.446935,3.4968 1.070639,0.2883 c 1.652082,0.44486 4.579972,-0.42622 6.545196,-1.94727 0.508717,-0.39374 0.492377,-0.41107 -0.397878,-0.42196 -1.339996,-0.0164 -2.917772,-0.30769 -2.917772,-0.5387 0,-0.10918 1.329032,-1.59025 2.953404,-3.29126 l 2.953404,-3.09274 -0.482486,-1.06996 c -0.536905,-1.19065 -1.520818,-2.09243 -2.282996,-2.09243 -0.275363,0 -1.037569,0.49491 -1.693792,1.09979 -0.656223,0.60489 -1.252091,1.04083 -1.324151,0.96877 -0.07206,-0.072 0.197921,-0.83553 0.599957,-1.6966 0.504227,-1.07995 0.731684,-1.99757 0.73326,-2.95817 0.0012,-0.76591 0.08672,-1.39257 0.189927,-1.39257 0.103203,0 0.833126,0.8057 1.622052,1.79045 1.916163,2.39178 2.343345,2.73932 3.569147,2.90374 1.8622,0.24977 2.980757,-0.92442 2.418123,-2.53839 -0.310158,-0.88972 -1.222769,-1.5563 -4.613939,-3.370053 -5.886889,-3.148577 -9.411801,-5.57926 -11.127828,-7.673444 -0.809969,-0.98846 -0.943501,-1.291995 -0.648917,-1.475064 0.463672,-0.288148 2.050549,-0.06265 3.949327,0.561196 0.801021,0.263178 1.517201,0.415113 1.591512,0.337634 0.07431,-0.07748 -0.454886,-0.662341 -1.175992,-1.299693 -0.721107,-0.637352 -1.229618,-1.240307 -1.130026,-1.339899 0.262887,-0.262887 2.141719,0.638704 4.428203,2.124951 2.160503,1.404358 3.409794,2.391241 6.947683,5.488354 1.616741,1.415314 3.079688,2.398597 4.907162,3.298225 2.744303,1.350963 5.362446,3.589673 6.285422,5.374513 0.438499,0.84796 0.434058,0.87701 -0.236639,1.54771 -0.375939,0.37594 -0.845671,0.6213 -1.043852,0.54525 -0.19818,-0.0761 -0.928021,0.0326 -1.621872,0.2414 -0.693852,0.20882 -1.816579,0.37967 -2.494953,0.37967 -1.513424,0 -1.788705,0.21416 -3.068641,2.38727 -2.901809,4.92677 -7.321468,9.04523 -11.105943,10.34908 -1.66373,0.5732 -3.983479,0.81729 -5.124395,0.53921 z"
       id="path10486"
       inkscape:connector-curvature="0"
       transform="translate(205.06019,314.90369)" />
  </g>
</svg>
