<?xml version="1.0" encoding="UTF-8" standalone="no"?>
<!-- Created with Inkscape (http://www.inkscape.org/) -->

<svg
   xmlns:dc="http://purl.org/dc/elements/1.1/"
   xmlns:cc="http://creativecommons.org/ns#"
   xmlns:rdf="http://www.w3.org/1999/02/22-rdf-syntax-ns#"
   xmlns:svg="http://www.w3.org/2000/svg"
   xmlns="http://www.w3.org/2000/svg"
   xmlns:sodipodi="http://sodipodi.sourceforge.net/DTD/sodipodi-0.dtd"
   xmlns:inkscape="http://www.inkscape.org/namespaces/inkscape"
   width="32.479382mm"
   height="39.26495mm"
   viewBox="0 0 115.08442 139.12777"
   id="svg8629"
   version="1.1"
   inkscape:version="0.91 r13725"
   sodipodi:docname="end_user_button.svg">
  <defs
     id="defs8631" />
  <sodipodi:namedview
     id="base"
     pagecolor="#ffffff"
     bordercolor="#666666"
     borderopacity="1.0"
     inkscape:pageopacity="0.0"
     inkscape:pageshadow="2"
     inkscape:zoom="6.1198265"
     inkscape:cx="80.694056"
     inkscape:cy="76.590729"
     inkscape:document-units="px"
     inkscape:current-layer="layer9"
     showgrid="false"
     fit-margin-top="0"
     fit-margin-left="0"
     fit-margin-right="0"
     fit-margin-bottom="0"
     inkscape:window-width="1916"
     inkscape:window-height="1041"
     inkscape:window-x="0"
     inkscape:window-y="18"
     inkscape:window-maximized="0" />
  <metadata
     id="metadata8634">
    <rdf:RDF>
      <cc:Work
         rdf:about="">
        <dc:format>image/svg+xml</dc:format>
        <dc:type
           rdf:resource="http://purl.org/dc/dcmitype/StillImage" />
        <dc:title></dc:title>
      </cc:Work>
    </rdf:RDF>
  </metadata>
  <g
     inkscape:groupmode="layer"
     id="layer9"
     inkscape:label="Layer 3">
    <ellipse
       style="opacity:1;fill:#ddff55;fill-opacity:1;stroke:#ffffff;stroke-width:1.00995576"
       id="path10892"
       cx="58.202663"
       cy="29.578688"
       rx="20.83745"
       ry="23.867701" />
    <ellipse
       style="opacity:1;fill:#ddff55;fill-opacity:1;stroke:#ffffff;stroke-width:0;stroke-miterlimit:4;stroke-dasharray:none"
       id="path10896"
       cx="39.543606"
       cy="31.690088"
       rx="2.9216819"
       ry="2.8608139" />
    <ellipse
       style="opacity:1;fill:#ddff55;fill-opacity:1;stroke:#ffffff;stroke-width:0;stroke-miterlimit:4;stroke-dasharray:none"
       id="path10896-3"
       cx="38.726589"
       cy="31.77179"
       rx="2.9216812"
       ry="3.841233" />
    <ellipse
       style="opacity:1;fill:#ddff55;fill-opacity:1;stroke:#ffffff;stroke-width:0;stroke-miterlimit:4;stroke-dasharray:none"
       id="path10896-3-6"
       cx="76.14595"
       cy="31.935194"
       rx="2.9216812"
       ry="3.841233" />
  </g>
  <g
     inkscape:label="Layer 1"
     inkscape:groupmode="layer"
     id="layer1"
     transform="translate(-205.06019,-314.90369)" />
  <g
     inkscape:groupmode="layer"
     id="layer5"
     inkscape:label="Layer 2"
     transform="translate(-205.06019,-314.90369)">
    <g
       id="g10163"
       transform="matrix(0.54825079,0,0,0.58497683,92.635779,125.14513)">
      <path
         id="path8941"
         d="m 308.86888,414.44034 2.29,0 c 0,0 20.61,-5.58217 30.42428,-27.32328 0,0 9.81429,-7.63877 3.92572,-14.98374 0,0 -3.59857,-1.46899 -6.54286,7.63877 l 2.61714,-13.22095 c 0,0 -0.65428,-4.40698 -4.90714,-4.40698 0,0 -12.43143,2.93799 -30.09714,-3.52558 0,0 -12.10428,-4.40698 -16.68428,-12.63335 0,0 -6.21572,0.8814 -11.45,13.51474 0,0 0.32714,12.04575 1.96286,17.92173 -0.98143,-2.64419 -3.27143,-6.75737 -6.21572,-4.40698 0,0 -5.23428,4.40698 3.59857,13.51474 -0.32714,0 12.10429,24.0915 31.07857,27.91088 z"
         inkscape:connector-curvature="0"
         style="fill:none" />
      <path
         id="path8945"
         d="m 401.77744,556.34514 -183.85426,0 c -1.96286,0 -3.27143,1.1752 -3.27143,2.93799 0,1.76279 1.30857,2.93799 3.27143,2.93799 l 183.85426,0 c 1.96286,0 3.27143,-1.1752 3.27143,-2.93799 0,-1.46899 -1.63571,-2.93799 -3.27143,-2.93799 z"
         inkscape:connector-curvature="0" />
      <path
         id="path8949"
         d="m 256.85317,416.20313 c 26.82571,8.52017 36.31286,-3.81938 36.31286,-3.81938 l 8.17857,4.70078 c 8.50571,4.11318 14.06714,1.46899 14.06714,1.46899 4.58,-1.76279 11.45,-5.58217 11.45,-5.58217 12.75857,12.33955 36.31285,3.52558 36.31285,3.52558 -10.14143,-4.11318 -14.06714,-10.87055 -15.70286,-17.04033 6.21572,4.40699 15.37572,1.1752 15.37572,1.1752 -6.87,2.05659 -14.39429,-9.10776 -15.70286,-10.87055 0,-0.2938 0.32714,-0.2938 0.32714,-0.2938 6.54286,-6.75737 5.56143,-12.92715 5.56143,-12.92715 -0.32714,-6.75737 -4.90714,-6.16977 -4.90714,-6.16977 3.92571,-24.0915 -4.25286,-32.61166 -4.25286,-32.61166 -21.91857,-22.62251 -52.99713,-9.69536 -52.99713,-9.69536 -27.48,10.28295 -16.68429,42.60082 -16.68429,42.60082 -5.88857,-0.5876 -5.56143,5.58217 -5.56143,5.58217 -0.65428,8.52017 5.56143,13.80854 5.56143,13.80854 0,0 0.32715,0.2938 0.32715,0.2938 -1.30858,2.05659 -8.83286,12.92715 -15.70286,10.87056 0,0 8.17857,2.93798 14.72143,-0.8814 -5.23429,13.51474 -16.68429,15.86513 -16.68429,15.86513 z m 17.01143,-43.18841 c 2.94429,-2.35039 4.90714,1.76279 6.21571,4.40698 -1.63571,-5.87598 -1.96285,-17.92173 -1.96285,-17.92173 5.23428,-12.63334 11.45,-13.51474 11.45,-13.51474 4.90714,8.22637 16.68428,12.63335 16.68428,12.63335 17.66571,6.46357 30.09714,3.52558 30.09714,3.52558 4.25286,0.2938 4.90714,4.40698 4.90714,4.40698 l -2.61714,13.22095 c 2.94428,-9.10776 6.54285,-7.63877 6.54285,-7.63877 5.88858,7.34497 -3.92571,14.98374 -3.92571,14.98374 -9.48714,21.44731 -30.42428,27.32328 -30.42428,27.32328 l -2.29,0 c -19.30143,-3.81938 -31.73285,-27.91088 -31.73285,-27.91088 -8.17858,-9.10776 -2.94429,-13.51474 -2.94429,-13.51474 z"
         inkscape:connector-curvature="0"
         style="fill:#000000" />
      <polygon
         transform="matrix(3.2714282,0,0,2.9379876,146.2789,296.33324)"
         id="polygon8951"
         points="48.9,47.7 47.6,51.1 52.3,51.1 51,47.6 53.1,45.2 51.6,43.6 48.3,43.6 46.7,45.2 "
         style="fill:#000000" />
      <path
         id="path8953"
         d="m 330.46031,446.46441 55.28713,0 c -0.65428,-1.7628 -1.63571,-3.52559 -2.61714,-4.40699 0,0 -4.25285,-4.99457 -14.06714,-8.52016 0,0 -31.73285,-9.10776 -32.71428,-9.10776 0,0 0.65428,10.28296 -5.88857,22.03491 z"
         inkscape:connector-curvature="0"
         style="fill:#000000" />
      <path
         id="path8955"
         d="m 283.35174,424.4295 c 0,0 -29.11571,7.63877 -37.62142,11.16435 0,0 -8.83286,4.40698 -9.81429,6.75737 0,0 -0.98143,1.469 -1.96285,4.40699 l 54.95999,0 c -3.59857,-6.46358 -5.88857,-13.80855 -5.56143,-22.32871 z"
         inkscape:connector-curvature="0"
         style="fill:#000000" />
      <g
         id="g10156">
        <ellipse
           style="fill:none"
           cx="309.85031"
           cy="501.40479"
           id="circle8943"
           rx="7.5242848"
           ry="6.7573714" />
        <path
           inkscape:connector-curvature="0"
           d="m 407.99316,449.98999 -194.97712,0 c 0,0 -10.14143,1.1752 -7.52429,11.16435 l 20.28286,86.08304 c 0,0 0.98142,4.99458 6.54285,4.99458 l 155.39284,0 c 0,0 5.56143,-0.5876 7.52429,-6.46357 l 19.62857,-84.61405 c -0.32715,0.2938 2.28999,-9.10776 -6.87,-11.16435 z m -98.14285,58.17216 c -4.25286,0 -7.52428,-2.93799 -7.52428,-6.75738 0,-3.81938 3.27142,-6.75737 7.52428,-6.75737 4.25286,0 7.52428,2.93799 7.52428,6.75737 0,3.81939 -3.27142,6.75738 -7.52428,6.75738 z"
           id="path8947" />
        <path
           style="fill:#000000;fill-opacity:1;fill-rule:nonzero;stroke:none;stroke-width:1px;stroke-linecap:butt;stroke-linejoin:miter;stroke-opacity:1"
           id="path10152"
           d="m 312.13861,515.86839 c -1.46219,-1.84559 -2.73181,-3.82662 -3.89046,-5.87307 -0.81538,-1.48498 -1.58536,-2.9949 -2.34771,-4.50621 -0.20556,-0.16989 -0.41469,-0.91336 -0.35345,-0.5314 0.015,0.0935 0.12816,0.15313 0.14029,0.24705 0.0257,0.19923 -0.32452,-0.47953 -0.0485,0.0267 -1.3733,-1.05277 -2.93785,-1.80386 -4.42302,-2.68161 -0.0838,-0.0376 -0.32895,-0.1621 -0.25144,-0.1128 0.45003,0.28622 0.9877,0.47189 1.51521,0.52946 2.76181,0.30143 3.91314,-0.63383 6.50264,-2.96168 0.60846,-0.54698 0.65296,-1.50045 0.97944,-2.25067 0.0479,-0.25576 -0.0192,-0.56433 0.14361,-0.76728 0.0879,-0.10962 0.0849,0.27098 0.1585,0.39074 0.0414,0.0674 0.10656,0.12306 0.17803,0.15699 0.0541,0.0257 0.13544,-0.0281 0.17937,0.0127 0.4453,0.41334 0.79127,0.92241 1.20003,1.37192 0.30753,0.15193 0.45778,0.58745 0.77831,0.754 0.0728,0.0378 -0.0891,-0.14405 -0.15778,-0.18889 -0.50794,-0.33155 -0.50853,-0.29547 -1.1121,-0.54297 10.25689,2.93142 6.11124,17.43684 -4.14564,14.50542 l 0,0 c -0.4591,-0.15765 -0.92964,-0.28527 -1.3773,-0.47297 -2.06069,-0.86404 -3.75524,-2.37505 -5.24055,-4.00882 -1.44909,-1.64057 -2.85556,-3.2831 -3.88273,-5.24165 -1.27044,-2.42245 -1.69621,-4.99854 -1.70742,-7.70802 0.39209,-1.31561 0.29507,-2.89418 1.17625,-3.94683 1.43962,-1.71975 3.4454,-2.93444 5.44097,-3.95803 0.75617,-0.38787 1.69725,-0.18609 2.54577,-0.13862 1.70376,0.0953 3.296,0.78612 4.76319,1.59672 2.15133,1.2769 4.4063,2.39792 6.33192,4.02139 0.42966,0.37902 0.87478,0.7412 1.28897,1.13707 1.22551,1.17131 2.12916,2.62963 2.92004,4.11436 0.2098,0.50494 -0.0447,-0.0926 0.55802,1.06544 0.47163,0.90623 0.89151,1.8412 1.41246,2.72186 0.86432,1.57854 1.89314,3.05369 3.00125,4.471 6.2004,8.68055 -6.07576,17.44923 -12.27615,8.76868 z"
           inkscape:connector-curvature="0" />
        <path
           style="fill:#000000;fill-opacity:1;fill-rule:nonzero;stroke:none;stroke-width:1px;stroke-linecap:butt;stroke-linejoin:miter;stroke-opacity:1"
           id="path10154"
           d="m 301.79136,506.29633 c 0.86114,-3.70785 1.7594,-7.39826 2.44015,-11.14506 0.41817,-2.36792 0.85299,-4.73247 1.30597,-7.09393 2.01169,-10.47616 16.82722,-7.6312 14.81553,2.84496 l 0,0 c -0.44567,2.31826 -0.87025,4.64014 -1.28175,6.96474 -0.7239,3.93143 -1.6385,7.81214 -2.55294,11.70194 -2.31412,10.41354 -17.04108,7.14088 -14.72696,-3.27265 z"
           inkscape:connector-curvature="0" />
      </g>
    </g>
    <path
       style="fill:#ddff55;fill-opacity:1"
       id="path9508"
       d="m 277.19903,414.54189 c -2.90003,-1.98647 -3.74487,-1.29587 -6.34876,-3.6888 -4.06515,-3.73493 -8.98802,-7.9838 -13.8215,-9.18294 0,0 1.18101,1.10369 3.3681,3.10439 0.15329,0.14696 0.19332,0.21618 0.16316,0.27402 -0.0463,0.0907 -0.25447,-0.0145 -0.25447,-0.0145 -1.68995,-0.74117 -3.59844,-1.16154 -4.89161,-1.06514 -0.42804,0.0316 -0.56515,0.11126 -0.62602,0.2519 -0.0285,0.0661 -0.0326,0.24401 0.11105,0.46431 0.56515,0.86127 1.92605,2.54875 4.19019,4.15056 2.32694,1.64543 6.43623,3.97989 10.0706,5.84373 1.62661,0.83378 2.79885,1.94822 2.42566,3.23397 -0.4168,1.43272 -2.02559,1.62774 -3.3108,1.03511 -1.04419,-0.48136 -2.0201,-1.99026 -3.6053,-4.01434 -2.74648,-3.50769 -4.0498,-4.90691 -8.60743,-3.83734 -2.2847,0.53636 -4.44054,2.69161 -6.16476,4.96633 -1.15059,1.67262 -1.70366,3.06393 -1.87038,4.74161 0,0 -0.31424,-0.66532 -0.002,-2.36733 0.5454,-2.97323 -0.64192,-4.25013 -0.64192,-4.25013 -6.01204,9.82709 2.53945,18.71168 9.13143,10.2029 0,0 -2.15665,5.5207 -1.97704,7.23978 -0.91997,0.34767 -1.32855,1.32305 0.0482,2.50007 1.50432,1.28576 5.19928,1.1745 8.11385,-0.26929 5.44168,-2.69571 8.8331,-7.71925 10.51427,-10.90929 0.39267,-0.74591 0.8081,-1.10876 1.09574,-1.22729 0.43627,-0.18141 3.43776,0.0272 4.84308,-0.89256 0.19551,0.10968 0.44449,0.16846 0.77245,0.1397 1.01841,-0.0891 1.63867,-1.49404 1.63867,-1.49404 0,0 -1.28522,-2.82593 -4.36431,-4.93535 z m -11.28151,14.11293 c -2.7876,2.28831 -5.81103,2.92677 -7.68004,1.97921 2.95652,-2.471 8.39738,-8.65165 8.39738,-8.65165 0,0 -0.90545,-2.62903 -2.53836,-1.01931 -1.57944,1.55661 -3.03851,3.50136 -3.61517,4.12243 -0.35674,0.38339 -0.96193,1.10813 -1.31949,0.79649 -0.43517,-0.37896 0.86019,-3.73747 1.85063,-6.52074 1.3513,-3.79594 -0.20346,-4.98182 -2.02338,-4.87657 -1.63073,0.0945 -3.8584,1.2336 -5.4543,2.35848 -0.45189,0.31891 -0.76038,0.51487 -0.87445,0.39318 -0.0998,-0.10714 0.006,-0.30879 0.30218,-0.59736 4.24228,-4.14298 10.29627,-4.0352 10.83756,-1.0035 0.43078,2.41789 -4.05034,8.50657 -3.75584,8.60424 0.0285,0.009 0.0927,-0.0279 0.18646,-0.10178 1.47086,-2.21909 4.256,-5.62627 5.30074,-5.49447 1.87202,0.23578 2.51806,3.09553 2.51806,3.09553 l -6.24127,6.49135 c 1.28906,0.40361 2.69877,0.54932 4.10929,0.42447 z"
       inkscape:connector-curvature="0" />
  </g>
</svg>
