<?xml version="1.0" encoding="UTF-8" standalone="no"?>
<!-- Created with Inkscape (http://www.inkscape.org/) -->

<svg
   xmlns:dc="http://purl.org/dc/elements/1.1/"
   xmlns:cc="http://creativecommons.org/ns#"
   xmlns:rdf="http://www.w3.org/1999/02/22-rdf-syntax-ns#"
   xmlns:svg="http://www.w3.org/2000/svg"
   xmlns="http://www.w3.org/2000/svg"
   xmlns:sodipodi="http://sodipodi.sourceforge.net/DTD/sodipodi-0.dtd"
   xmlns:inkscape="http://www.inkscape.org/namespaces/inkscape"
   width="49.836246mm"
   height="43.473545mm"
   viewBox="0 0 176.58513 154.04012"
   id="svg6115"
   version="1.1"
   inkscape:version="0.91 r13725"
   sodipodi:docname="oem_button.svg">
  <defs
     id="defs6117" />
  <sodipodi:namedview
     id="base"
     pagecolor="#ffffff"
     bordercolor="#666666"
     borderopacity="1.0"
     inkscape:pageopacity="0.0"
     inkscape:pageshadow="2"
     inkscape:zoom="1.33"
     inkscape:cx="-8.7332366"
     inkscape:cy="-63.06265"
     inkscape:document-units="px"
     inkscape:current-layer="layer3"
     showgrid="false"
     inkscape:window-width="1916"
     inkscape:window-height="1041"
     inkscape:window-x="0"
     inkscape:window-y="18"
     inkscape:window-maximized="0"
     fit-margin-top="0"
     fit-margin-left="0"
     fit-margin-right="0"
     fit-margin-bottom="0" />
  <metadata
     id="metadata6120">
    <rdf:RDF>
      <cc:Work
         rdf:about="">
        <dc:format>image/svg+xml</dc:format>
        <dc:type
           rdf:resource="http://purl.org/dc/dcmitype/StillImage" />
        <dc:title></dc:title>
      </cc:Work>
    </rdf:RDF>
  </metadata>
  <g
     inkscape:label="Layer 1"
     inkscape:groupmode="layer"
     id="layer1"
     transform="translate(-171.66668,-269.48343)">
    <g
       id="g8199">
      <path
         id="path6440"
         d="m 293.05557,269.48343 -110.35353,0 c -6.08563,0 -11.03536,5.00635 -11.03536,11.16161 l 0,111.61617 c 0,6.15526 4.94973,11.16161 11.03536,11.16161 l 110.35353,0 c 6.08563,0 11.03536,-5.00635 11.03536,-11.16161 l 0,-111.61617 c 0,-6.15526 -4.94973,-11.16161 -11.03536,-11.16161 z m 3.67845,122.77778 c 0,2.05076 -1.65088,3.72053 -3.67845,3.72053 l -110.35353,0 c -2.02757,0 -3.67846,-1.66977 -3.67846,-3.72053 l 0,-55.80809 7.35691,0 0,-7.44107 -7.35691,0 0,-7.44108 7.35691,0 0,-7.44108 -7.35691,0 0,-7.44108 7.35691,0 0,-7.44107 -7.35691,0 0,-7.44108 7.35691,0 0,-7.44108 -7.35691,0 0,-3.72054 c 0,-2.05076 1.65089,-3.72054 3.67846,-3.72054 l 110.35353,0 c 2.02757,0 3.67845,1.66978 3.67845,3.72054 l 0,111.61617 z"
         inkscape:connector-curvature="0" />
      <path
         id="path6442"
         d="m 197.41584,329.01205 36.78451,0 0,-37.20539 -36.78451,0 0,37.20539 z m 7.3569,-29.76431 22.07071,0 0,22.32323 -22.07071,0 0,-22.32323 z"
         inkscape:connector-curvature="0" />
      <path
         id="path6444"
         d="m 186.38049,358.77636 0,7.44108 0,11.16161 47.81986,0 0,-11.16161 0,-7.44108 0,-11.16162 -47.81986,0 0,11.16162 z m 7.3569,-3.72054 33.10606,0 0,3.72054 -33.10606,0 0,-3.72054 z m 0,11.16162 33.10606,0 0,3.72053 -33.10606,0 0,-3.72053 z"
         inkscape:connector-curvature="0" />
      <path
         d="m 259.94951,291.80666 7.35691,0 0,37.20539 -7.35691,0 z"
         id="rect6446"
         inkscape:connector-curvature="0" />
      <path
         d="m 248.91416,291.80666 7.3569,0 0,37.20539 -7.3569,0 z"
         id="rect6448"
         inkscape:connector-curvature="0" />
      <path
         d="m 270.98487,291.80666 7.3569,0 0,37.20539 -7.3569,0 z"
         id="rect6450"
         inkscape:connector-curvature="0" />
      <path
         d="m 282.02022,291.80666 7.3569,0 0,37.20539 -7.3569,0 z"
         id="rect6452"
         inkscape:connector-curvature="0" />
      <path
         d="m 208.45119,381.09959 7.35691,0 0,7.44108 -7.35691,0 z"
         id="rect6466"
         inkscape:connector-curvature="0" />
      <path
         d="m 248.91416,381.09959 7.3569,0 0,7.44108 -7.3569,0 z"
         id="rect6468"
         inkscape:connector-curvature="0" />
      <path
         d="m 237.8788,353.19555 7.35691,0 0,7.44108 -7.35691,0 z"
         id="rect6470"
         inkscape:connector-curvature="0" />
      <path
         d="m 237.8788,364.35717 7.35691,0 0,7.44107 -7.35691,0 z"
         id="rect6472"
         inkscape:connector-curvature="0" />
      <path
         d="m 259.94951,280.64504 7.35691,0 0,7.44108 -7.35691,0 z"
         id="rect6474"
         inkscape:connector-curvature="0" />
      <path
         d="m 282.02022,280.64504 7.3569,0 0,7.44108 -7.3569,0 z"
         id="rect6476"
         inkscape:connector-curvature="0" />
      <path
         d="m 270.98487,280.64504 7.3569,0 0,7.44108 -7.3569,0 z"
         id="rect6478"
         inkscape:connector-curvature="0" />
      <path
         d="m 248.91416,280.64504 7.3569,0 0,7.44108 -7.3569,0 z"
         id="rect6480"
         inkscape:connector-curvature="0" />
      <path
         d="m 259.94951,332.73259 7.35691,0 0,7.44107 -7.35691,0 z"
         id="rect6482"
         inkscape:connector-curvature="0" />
      <path
         d="m 282.02022,332.73259 7.3569,0 0,7.44107 -7.3569,0 z"
         id="rect6484"
         inkscape:connector-curvature="0" />
      <path
         d="m 270.98487,332.73259 7.3569,0 0,7.44107 -7.3569,0 z"
         id="rect6486"
         inkscape:connector-curvature="0" />
      <path
         d="m 248.91416,332.73259 7.3569,0 0,7.44107 -7.3569,0 z"
         id="rect6488"
         inkscape:connector-curvature="0" />
      <path
         d="m 186.38049,381.09959 7.3569,0 0,7.44108 -7.3569,0 z"
         id="rect6490"
         inkscape:connector-curvature="0" />
      <path
         d="m 197.41584,381.09959 7.3569,0 0,7.44108 -7.3569,0 z"
         id="rect6492"
         inkscape:connector-curvature="0" />
    </g>
    <path
       style="opacity:1;fill:#ff5555;fill-opacity:1;stroke:#ffffff;stroke-width:0.75187969"
       d="m 180.52743,394.40575 c -0.66993,-0.66993 -0.90226,-8.22055 -0.90226,-29.32331 l 0,-28.42105 3.38346,0 3.38346,0 0,-4.13534 0,-4.13534 -3.38346,0 -3.38346,0 0,-3.38346 0,-3.38346 3.38346,0 3.38346,0 0,-3.75939 0,-3.7594 -3.38346,0 -3.38346,0 0,-3.38346 0,-3.38346 3.38346,0 3.38346,0 0,-4.13534 0,-4.13534 -3.38346,0 -3.38346,0 0,-3.38345 0,-3.38346 3.38346,0 3.38346,0 0,-4.13534 0,-4.13534 -3.38346,0 c -3.3265,0 -3.38346,-0.0418 -3.38346,-2.4812 0,-1.36466 0.40602,-2.88722 0.90226,-3.38346 1.30602,-1.30602 113.43082,-1.30602 114.73684,0 1.30617,1.30616 1.30617,114.93443 0,116.2406 -1.30602,1.30602 -113.43082,1.30602 -114.73684,0 z m 13.38346,-9.62406 0,-3.7594 -3.7594,0 -3.7594,0 0,3.7594 0,3.7594 3.7594,0 3.7594,0 0,-3.7594 z m 11.27819,0 0,-3.7594 -4.13534,0 -4.13533,0 0,3.7594 0,3.7594 4.13533,0 4.13534,0 0,-3.7594 z m 11.2782,0 0,-3.7594 -4.13534,0 -4.13534,0 0,3.7594 0,3.7594 4.13534,0 4.13534,0 0,-3.7594 z m 39.84962,0 0,-3.7594 -3.7594,0 -3.75939,0 0,3.7594 0,3.7594 3.75939,0 3.7594,0 0,-3.7594 z m -21.80451,-22.18045 0,-15.41354 -24.06015,0 -24.06015,0 0,15.41354 0,15.41353 24.06015,0 24.06015,0 0,-15.41353 z m 11.2782,5.26316 0,-4.13534 -4.13534,0 -4.13534,0 0,4.13534 0,4.13533 4.13534,0 4.13534,0 0,-4.13533 z m 0,-10.90226 0,-3.7594 -4.13534,0 -4.13534,0 0,3.7594 0,3.7594 4.13534,0 4.13534,0 0,-3.7594 z m 10.52631,-20.67669 0,-4.13534 -3.7594,0 -3.75939,0 0,4.13534 0,4.13534 3.75939,0 3.7594,0 0,-4.13534 z m 11.2782,-0.0393 0,-4.17464 -3.94737,0.22727 -3.94737,0.22726 -0.22726,3.94737 -0.22727,3.94737 4.17464,0 4.17463,0 0,-4.17463 z m 11.27819,0.0393 0,-4.13534 -4.13534,0 -4.13533,0 0,4.13534 0,4.13534 4.13533,0 4.13534,0 0,-4.13534 z m 10.52632,0 0,-4.13534 -3.7594,0 -3.7594,0 0,4.13534 0,4.13534 3.7594,0 3.7594,0 0,-4.13534 z m -54.88722,-25.93985 0,-18.79699 -18.79699,0 -18.79699,0 0,18.79699 0,18.79699 18.79699,0 18.79699,0 0,-18.79699 z m 21.80451,0 0,-18.79699 -3.7594,0 -3.75939,0 0,18.79699 0,18.79699 3.75939,0 3.7594,0 0,-18.79699 z m 11.2782,0 0,-18.79699 -4.13534,0 -4.13534,0 0,18.79699 0,18.79699 4.13534,0 4.13534,0 0,-18.79699 z m 11.27819,0 0,-18.79699 -4.13534,0 -4.13533,0 0,18.79699 0,18.79699 4.13533,0 4.13534,0 0,-18.79699 z m 10.52632,0 0,-18.79699 -3.7594,0 -3.7594,0 0,18.79699 0,18.79699 3.7594,0 3.7594,0 0,-18.79699 z m -33.08271,-25.93985 0,-4.13534 -3.7594,0 -3.75939,0 0,4.13534 0,4.13534 3.75939,0 3.7594,0 0,-4.13534 z m 11.2782,0 0,-4.13534 -4.13534,0 -4.13534,0 0,4.13534 0,4.13534 4.13534,0 4.13534,0 0,-4.13534 z m 11.27819,0 0,-4.13534 -4.13534,0 -4.13533,0 0,4.13534 0,4.13534 4.13533,0 4.13534,0 0,-4.13534 z m 10.52632,0 0,-4.13534 -3.7594,0 -3.7594,0 0,4.13534 0,4.13534 3.7594,0 3.7594,0 0,-4.13534 z"
       id="path10546"
       inkscape:connector-curvature="0" />
    <path
       style="opacity:1;fill:#ff5555;fill-opacity:1;stroke:#ffffff;stroke-width:0.75187969"
       d="m 205.18908,310.3456 0,-10.52632 10.52632,0 10.52631,0 0,10.52632 0,10.52632 -10.52631,0 -10.52632,0 0,-10.52632 z"
       id="path10548"
       inkscape:connector-curvature="0" />
    <path
       style="opacity:1;fill:#ff5555;fill-opacity:1;stroke:#ffffff;stroke-width:0.75187969"
       d="m 193.91089,356.96214 c 0,-1.45713 0.50125,-1.50376 16.16541,-1.50376 15.66416,0 16.16541,0.0466 16.16541,1.50376 0,1.45713 -0.50125,1.50376 -16.16541,1.50376 -15.66416,0 -16.16541,-0.0466 -16.16541,-1.50376 z"
       id="path10550"
       inkscape:connector-curvature="0" />
    <path
       style="opacity:1;fill:#ff5555;fill-opacity:1;stroke:#ffffff;stroke-width:0.75187969"
       d="m 193.91089,368.24034 c 0,-1.45714 0.50125,-1.50376 16.16541,-1.50376 15.66416,0 16.16541,0.0466 16.16541,1.50376 0,1.45713 -0.50125,1.50376 -16.16541,1.50376 -15.66416,0 -16.16541,-0.0466 -16.16541,-1.50376 z"
       id="path10552"
       inkscape:connector-curvature="0" />
  </g>
  <g
     inkscape:groupmode="layer"
     id="layer3"
     inkscape:label="Layer 2"
     transform="translate(-171.66668,-269.48343)">
    <g
       id="g10554"
       transform="translate(-2.2556391,-134.58647)">
      <g
         transform="translate(35.338346,-38.345866)"
         id="g8224">
        <g
           id="g7995"
           transform="translate(222.16906,-448.90633)">
          <path
             id="path7997"
             transform="translate(0,952.36218)"
             d="m 43.15625,7.71875 -2.78125,9.6875 c -2.32339,0.68818 -4.542255,1.64153 -6.625,2.78125 l -8.8125,-4.90625 c -0.379643,-0.224479 -0.908013,-0.15674 -1.21875,0.15625 l -8.28125,8.28125 c -0.31299,0.310737 -0.380729,0.839107 -0.15625,1.21875 L 20.1875,33.75 c -1.139723,2.08274 -2.093072,4.30161 -2.78125,6.625 l -9.6875,2.78125 C 7.3045677,43.277653 6.9961036,43.693409 7,44.125 l 0,11.75 c -0.0039,0.431591 0.3045677,0.847347 0.71875,0.96875 l 9.6875,2.78125 c 0.688178,2.3234 1.641527,4.5422 2.78125,6.625 l -4.90625,8.8125 c -0.224479,0.379643 -0.15674,0.908013 0.15625,1.21875 l 8.28125,8.28125 c 0.310737,0.31299 0.839107,0.380729 1.21875,0.15625 L 33.75,79.8125 c 2.082745,1.1397 4.30161,2.09315 6.625,2.78125 l 2.78125,9.6875 C 43.277653,92.695432 43.693409,93.003896 44.125,93 l 11.75,0 c 0.431591,0.0039 0.847347,-0.304568 0.96875,-0.71875 l 2.78125,-9.6875 c 2.32339,-0.6881 4.542255,-1.64155 6.625,-2.78125 l 8.8125,4.90625 c 0.379643,0.224479 0.908013,0.15674 1.21875,-0.15625 l 8.28125,-8.28125 c 0.31299,-0.310737 0.380729,-0.839107 0.15625,-1.21875 L 79.8125,66.25 c 1.139723,-2.0828 2.093072,-4.3016 2.78125,-6.625 l 9.6875,-2.78125 C 92.695432,56.722347 93.003896,56.306591 93,55.875 l 0,-11.75 c 0.0039,-0.431591 -0.304568,-0.847347 -0.71875,-0.96875 L 82.59375,40.375 C 81.905572,38.05161 80.952223,35.83274 79.8125,33.75 l 4.90625,-8.8125 c 0.224479,-0.379643 0.15674,-0.908013 -0.15625,-1.21875 L 76.28125,15.4375 C 75.970513,15.12451 75.442143,15.056771 75.0625,15.28125 L 66.25,20.1875 C 64.167255,19.04778 61.94839,18.09443 59.625,17.40625 L 56.84375,7.71875 C 56.722347,7.3045677 56.306591,6.9961036 55.875,7 L 44.125,7 C 43.622047,7 43.249894,7.3925737 43.15625,7.71875 Z M 44.875,9 l 10.25,0 2.6875,9.46875 c 0.09828,0.332781 0.381932,0.604094 0.71875,0.6875 2.5684,0.70758 4.978307,1.73874 7.25,3.03125 0.302307,0.174514 0.697693,0.174514 1,0 L 75.375,17.40625 82.59375,24.625 77.8125,33.21875 c -0.174514,0.302307 -0.174514,0.697693 0,1 1.292513,2.27169 2.323674,4.6816 3.03125,7.25 0.08341,0.336818 0.354719,0.620465 0.6875,0.71875 L 91,44.875 l 0,10.25 -9.46875,2.6875 c -0.332781,0.09828 -0.604094,0.381932 -0.6875,0.71875 -0.707576,2.5684 -1.738737,4.9783 -3.03125,7.25 -0.174514,0.302307 -0.174514,0.697693 0,1 L 82.59375,75.375 75.375,82.59375 66.78125,77.8125 c -0.302307,-0.174514 -0.697693,-0.174514 -1,0 -2.271693,1.2925 -4.6816,2.32375 -7.25,3.03125 -0.336818,0.08341 -0.620465,0.354719 -0.71875,0.6875 L 55.125,91 44.875,91 42.1875,81.53125 c -0.09828,-0.332781 -0.381932,-0.604094 -0.71875,-0.6875 -2.5684,-0.7075 -4.978307,-1.73875 -7.25,-3.03125 -0.302307,-0.174514 -0.697693,-0.174514 -1,0 L 24.625,82.59375 17.40625,75.375 22.1875,66.78125 c 0.174514,-0.302307 0.174514,-0.697693 0,-1 -1.292513,-2.2717 -2.323674,-4.6816 -3.03125,-7.25 -0.08341,-0.336818 -0.354719,-0.620465 -0.6875,-0.71875 L 9,55.125 9,44.875 18.46875,42.1875 c 0.332781,-0.09828 0.604094,-0.381932 0.6875,-0.71875 0.707576,-2.5684 1.738737,-4.97831 3.03125,-7.25 0.174514,-0.302307 0.174514,-0.697693 0,-1 L 17.40625,24.625 24.625,17.40625 33.21875,22.1875 c 0.302307,0.174514 0.697693,0.174514 1,0 2.271693,-1.29251 4.6816,-2.32367 7.25,-3.03125 0.336818,-0.08341 0.620465,-0.354719 0.71875,-0.6875 z M 50,31 C 39.518435,31 31,39.51842 31,50 31,60.4815 39.518435,69 50,69 60.481566,69 69,60.4815 69,50 69,39.51842 60.481566,31 50,31 Z m 0,2 c 9.400686,0 17,7.5993 17,17 0,9.4007 -7.599314,17 -17,17 -9.400685,0 -17,-7.5993 -17,-17 0,-9.4007 7.599315,-17 17,-17 z"
             style="color:#000000;font-style:normal;font-variant:normal;font-weight:normal;font-stretch:normal;font-size:medium;line-height:normal;font-family:Sans;-inkscape-font-specification:Sans;text-indent:0;text-align:start;text-decoration:none;text-decoration-line:none;letter-spacing:normal;word-spacing:normal;text-transform:none;direction:ltr;block-progression:tb;writing-mode:lr-tb;baseline-shift:baseline;text-anchor:start;display:inline;overflow:visible;visibility:visible;opacity:1;fill:#000000;fill-opacity:1;stroke:none;stroke-width:2;marker:none;enable-background:accumulate"
             inkscape:connector-curvature="0" />
        </g>
        <path
           style="opacity:1;fill:#000000;fill-opacity:1;stroke:#ffffff;stroke-width:0.75187969"
           d="m 266.12938,589.69837 c -1.49668,-5.25181 -1.50908,-5.26581 -6.47418,-7.30749 l -3.9899,-1.64066 -4.30159,2.31242 -4.30158,2.31242 -3.42084,-3.409 -3.42083,-3.40901 2.3365,-4.31388 2.33649,-4.31388 -1.73267,-4.18038 c -1.91697,-4.62503 -2.30028,-4.92947 -8.01513,-6.36582 l -3.97831,-0.9999 0.21891,-4.90025 0.2189,-4.90026 4.88722,-1.39995 4.88722,-1.39996 1.74479,-4.48513 1.74479,-4.48512 -2.37705,-4.21191 -2.37706,-4.21191 3.47354,-3.46171 3.47353,-3.4617 4.44849,2.45034 4.4485,2.45034 4.32379,-2.0744 c 4.21487,-2.02214 4.35865,-2.19279 5.70706,-6.77365 l 1.38326,-4.69925 4.80697,0 4.80697,0 1.18117,4.06309 c 0.64964,2.2347 1.18117,4.35405 1.18117,4.70967 0,0.35562 2.07203,1.56237 4.60452,2.68166 l 4.60451,2.03507 4.39632,-2.42144 4.39632,-2.42143 3.42083,3.409 3.42084,3.40901 -2.31825,4.28019 -2.31825,4.28019 1.73869,4.46954 1.73868,4.46955 4.88722,1.4026 4.88722,1.4026 0,4.83221 0,4.83221 -4.97327,1.42222 c -4.3951,1.25689 -5.06459,1.69712 -5.75889,3.7869 -0.4321,1.30058 -1.19637,3.37972 -1.6984,4.62032 -0.82551,2.04002 -0.68314,2.64485 1.48937,6.32731 l 2.40213,4.07166 -3.46512,3.44713 -3.46511,3.44713 -4.35407,-2.35303 -4.35407,-2.35303 -3.89761,1.64763 c -4.88379,2.06451 -4.95812,2.14959 -6.44919,7.38174 l -1.23207,4.32331 -4.84521,0 -4.84521,0 -1.23206,-4.32331 z m 11.62471,-17.89957 c 14.20848,-4.21947 18.20544,-22.72821 7.07484,-32.76156 -7.76105,-6.99598 -19.6824,-6.27681 -26.77819,1.61542 -11.00547,12.24074 -2.70836,31.58027 13.83148,32.23943 1.06216,0.0423 3.7045,-0.44966 5.87187,-1.09329 z"
           id="path8222"
           inkscape:connector-curvature="0" />
      </g>
      <path
         inkscape:connector-curvature="0"
         id="path10529"
         d="m 300.09696,529.80693 c -10.61865,-5.25613 -12.32843,-19.34968 -3.28638,-27.08934 5.00568,-4.28468 10.10338,-5.31846 15.98794,-3.24227 11.16609,3.93963 14.84817,18.46247 6.82436,26.91658 -4.87726,5.13882 -13.12813,6.58187 -19.52592,3.41503 z"
         style="opacity:1;fill:#ff5555;fill-opacity:1;stroke:#ffffff;stroke-width:0.75187969" />
    </g>
  </g>
</svg>
