<svg xmlns="http://www.w3.org/2000/svg" width="94.14" height="94.14" viewBox="0 0 94.14285 94.142852"><g transform="translate(-286.4 -361.4)" color="#000"><circle cx="333.5" cy="408.43" r="47.07" fill="#4e9a06" style="isolation:auto;mix-blend-mode:normal" overflow="visible" solid-color="#000000"/><path fill="#fff" d="m 299.50023,293.01558 1.06629,1.91069 -0.98216,2.08931 -0.53125,0 0.44712,-2.46875 -1.45313,-0.26562 0.0194,1.73011 -0.57544,-0.004 -0.44398,-1.67945 -0.57812,0.1562 0.0157,2.5 -0.5625,0.0312 -0.82813,-2.5625 1.39553,-1.44525 0.006,-0.98548 2.99242,-0.006 z m 3.40623,-6.01019 a 1.5277282,1.5277282 0 0 1 1.52832,1.52734 1.5277282,1.5277282 0 0 1 -0.12305,0.59473 l 1.49902,1.82031 a 2.5,2.5 0 0 1 0.18946,-0.01 2.5,2.5 0 0 1 2.5,2.5 2.5,2.5 0 0 1 -2.5,2.5 2.5,2.5 0 0 1 -2.5,-2.5 2.5,2.5 0 0 1 0.29394,-1.17089 l -0.87793,-2.20704 a 1.5277282,1.5277282 0 0 1 -0.01,9.8e-4 1.5277282,1.5277282 0 0 1 -1.35645,-0.82715 l -1.95019,0.44824 a 1.5277282,1.5277282 0 0 1 -1.51075,1.30664 1.5277282,1.5277282 0 0 1 -1.52734,-1.52733 1.5277282,1.5277282 0 0 1 1.52734,-1.52832 1.5277282,1.5277282 0 0 1 1.36817,0.85351 l 1.94239,-0.49805 a 1.5277282,1.5277282 0 0 1 1.50683,-1.2832 z m 4.10939,9.60003 1.42579,1.41016 0.9082,0.2207 c 0.0884,0.0276 0.15625,0.13433 0.15625,0.25586 l 0,1.52344 -7.00586,0 0,-1.54492 c 0,-0.14377 0.0693,-0.19958 0.19922,-0.23438 l 0.77539,-0.2207 1.54492,-1.40039 a 3.328125,3.328125 0 0 0 0.98047,0.15234 3.328125,3.328125 0 0 0 1.01562,-0.16211 z" style="isolation:auto;mix-blend-mode:normal" overflow="visible" solid-color="#000000" transform="matrix(-2 0 0 2 941 -178.7)"/></g></svg>
