<svg xmlns="http://www.w3.org/2000/svg" width="100419.039" height="100419.039" viewBox="0 0 94.14285 94.142852"><g transform="translate(-169.4 -361.4)"><circle cx="216.5" cy="408.434" r="47.071" fill="#f57900" style="isolation:auto;mix-blend-mode:normal" color="#000" overflow="visible" solid-color="#000000"/><path fill="none" d="M200.952 391.386h32v32h-32z" color="#bebebe" overflow="visible"/><g fill="#fff" transform="matrix(2 0 0 2 -1037 -1579.3)"><path d="M629.555 993.456c-.706.623-1.54.906-2.555.906-1.016 0-1.853-.29-2.56-.914-1.108.363-2.435 1.288-2.436 2.902l-.004 3.012c0 .554.446 1 1 1h8c.554 0 1-.446 1-1v-3c0-1.387-1.102-2.556-2.445-2.906z"/><circle cx="49.5" cy="342.5" r="2.5" transform="matrix(1.2 0 0 1.2 567.6 579.4)" color="#bebebe" overflow="visible"/></g></g></svg>
